<?xml version="1.0" standalone="no"?>
<!DOCTYPE svg PUBLIC "-//W3C//DTD SVG 1.1//EN" "http://www.w3.org/Graphics/SVG/1.1/DTD/svg11.dtd" >
<svg xmlns="http://www.w3.org/2000/svg">
<metadata>
<json>
<![CDATA[
{
	"fontFamily": "KundenMeister",
	"description": "Font generated by IcoMoon.",
	"majorVersion": 1,
	"minorVersion": 0,
	"version": "Version 1.0",
	"fontId": "KundenMeister",
	"psName": "KundenMeister",
	"subFamily": "Regular",
	"fullName": "KundenMeister"
}
]]>
</json>
</metadata>
<defs>
<font id="KundenMeister" horiz-adv-x="1024">
<font-face units-per-em="1024" ascent="960" descent="-64" />
<missing-glyph horiz-adv-x="1024" />
<glyph unicode="&#x20;" horiz-adv-x="512" d="" />
<glyph unicode="&#xe601;" glyph-name="address-book" data-tags="svg" d="M181.842 736.974v-587.341c0-26.228 44.742-47.506 70.97-47.506v682.372c-26.228 0-70.97-21.296-70.97-47.524zM802.618 749.835h-37.427v-149.635h37.427c15.769 0 28.522 11.813 28.522 26.408v96.818c0 14.559-12.753 26.408-28.522 26.408zM802.618 575.797h-37.427v-149.653h37.427c15.769 0 28.522 11.813 28.522 26.426v96.8c0 14.613-12.753 26.426-28.522 26.426zM802.618 403.492h-37.427v-149.635h37.427c15.769 0 28.522 11.813 28.522 26.408v96.8c0 14.613-12.753 26.426-28.522 26.426zM277.143 102.759h463.446v682.119h-463.446v-682.119zM509.092 619.799c40.678 0 73.68-36.18 73.68-80.815s-33.001-92.538-73.68-92.538c-40.678 0-73.68 47.903-73.68 92.538s32.983 80.815 73.68 80.815zM440.813 450.276c16.925 2.005 45.754-92.465 45.754-92.465l12.933 53.684-3.992 23.861 13.529-0.957 13.547 0.957-3.992-23.861 12.933-53.684c0 0 28.829 94.47 45.736 92.465 65.425-7.677 73.011-53.666 73.011-128.772 0-67.917-50.161-77.202-140.82-77.274-0.126 0-0.253 0-0.397 0-0.126 0-0.253 0-0.379 0-90.677 0.072-140.838 9.375-140.838 77.274 0 75.107 7.587 121.095 72.975 128.772z" />
<glyph unicode="&#xe604;" glyph-name="add-contact" data-tags="svg" d="M733.106 418.62c-89.053 0-161.235-72.2-161.235-161.253s72.182-161.253 161.235-161.253c89.071 0 161.271 72.2 161.271 161.253s-72.2 161.253-161.271 161.253zM832.491 225.503h-67.485v-67.521h-63.746v67.503h-67.485v63.728h67.485v67.503h63.746v-67.503h67.485v-63.71zM577.164 638.687c0-89.556-72.6-162.156-162.156-162.156s-162.156 72.6-162.156 162.156c0 89.556 72.6 162.156 162.156 162.156s162.156-72.6 162.156-162.156zM544.776 257.367c0 82.098 52.89 151.914 126.3 177.636-23.555 37.12-57.099 60.26-80.238 67.684-36.597 11.759-54.913-9.158-91.528-35.314-34.194-24.422-82.062-23.753-88.24-23.555v0.036c0 0-0.199-0.018-0.343-0.018-0.126 0-0.343 0.018-0.343 0.018v-0.036c-6.178-0.217-54.028-0.867-88.222 23.555-36.615 26.156-54.931 47.073-91.546 35.314s-99.367-62.771-107.225-146.441-10.477-139.92 13.078-163.456c23.537-23.555 40.534-39.234 108.525-39.234 38.584 0 95.736 0 137.915 0 32.117 0 55.599 0 55.599 0 42.088 0 98.988 0 137.571 0-19.725 29.805-31.304 65.462-31.304 103.811z" />
<glyph unicode="&#xe607;" glyph-name="comments" data-tags="svg" d="M871.382 180.11c-7.912 8.779-11.398 20.231-12.265 32.37 59.104 41.131 96.332 99.837 96.332 165.208 0 124.385-133.904 225.233-299.095 225.233s-299.095-100.848-299.095-225.233c0-124.403 133.923-225.215 299.095-225.215 28.54 0 56.051 3.197 82.207 8.833 71.387-54.245 198.861-41.257 198.861-41.257s-34.826 25.217-66.040 60.061zM516.995 331.464c-21.911 0-39.631 17.738-39.631 39.631s17.72 39.631 39.631 39.631c21.893 0 39.631-17.738 39.631-39.631s-17.738-39.631-39.631-39.631zM651.549 331.464c-21.893 0-39.631 17.738-39.631 39.631s17.738 39.631 39.631 39.631 39.649-17.738 39.649-39.631-17.774-39.631-39.649-39.631zM786.086 331.464c-21.893 0-39.631 17.738-39.631 39.631s17.738 39.631 39.631 39.631 39.631-17.738 39.631-39.631-17.738-39.631-39.631-39.631zM321.132 377.688c0 144.128 150.378 261.36 335.222 261.36 42.287 0 82.604-6.394 119.905-17.594v58.598c0 53.847-43.677 97.507-97.525 97.507h-497.54c-53.865 0-97.525-43.659-97.525-97.507v-282.151c0-41.907 26.589-77.33 63.692-91.13-0.632-3.613-1.644-6.792-3.288-9.032-27.601-37.771-76.138-80.148-76.138-80.148s136.090 2.258 214.865 82.785h53.323c-9.736 24.476-14.993 50.415-14.993 77.312z" />
<glyph unicode="&#xe609;" glyph-name="tasks" data-tags="svg" d="M725.199 777.038h-99.672c0.163 2.24 0.343 4.48 0.343 6.756 0 54.045-43.803 97.848-97.83 97.848-54.045 0-97.848-43.803-97.848-97.848 0-2.276 0.199-4.516 0.343-6.756h-102.707v-124.184h397.389v124.184zM469.317 783.794c0 32.441 26.282 58.723 58.705 58.723s58.705-26.282 58.705-58.723c0-2.312-0.415-4.516-0.686-6.756h-116.038c-0.253 2.24-0.686 4.444-0.686 6.756zM758.869 725.197v-501.343h-78.213c-19.057 0-34.464-15.426-34.464-34.464v-61.595h-358.301v597.403c-26.246 0-70.97-21.296-70.97-47.524v-587.341c0-25.975 43.839-47.055 70.175-47.47v-0.126l475.657 0.289c26.535 1.879 67.105 22.308 67.105 47.307v587.341c-0.018 26.228-44.742 47.524-70.988 47.524zM500.151 576.014c-3.468 1.915-7.424 3.107-11.687 3.107h-118.079c-13.529 0-24.494-10.946-24.494-24.494v-118.079c0-13.547 10.964-24.494 24.494-24.494h118.079c13.529 0 24.494 10.946 24.494 24.494v118.079c0 3.902-0.993 7.532-2.619 10.802l25.198 34.735-35.386-24.15zM471.502 556.469l-35.295-24.060-59.97 20.502c2.926 2.077 6.304 3.558 10.151 3.558h85.114zM490.324 452.552c0-9.881-7.984-17.864-17.846-17.864h-86.089c-9.862 0-17.846 7.984-17.846 17.864v86.071c0 5.618 2.728 10.404 6.774 13.674l60.891-89.124 54.117 74.619v-85.24zM488.464 344.281h-118.079c-13.529 0-24.494-10.946-24.494-24.494v-118.079c0-13.547 10.964-24.494 24.494-24.494h118.079c13.529 0 24.494 10.946 24.494 24.494v118.079c0 13.547-10.964 24.494-24.494 24.494zM490.324 217.713c0-9.881-7.984-17.864-17.846-17.864h-86.089c-9.862 0-17.846 7.984-17.846 17.864v86.071c0 9.862 7.984 17.846 17.846 17.846h86.089c9.862 0 17.846-7.984 17.846-17.846v-86.071z" />
<glyph unicode="&#xe60d;" glyph-name="pharmacy" data-tags="pharmacy" horiz-adv-x="910" d="M670.798 703.202c-6.918-3.1-2.624-10.858 4.658-15.398 6.682-4.294 22.316-6.8 20.28-15.264-0.718-3.34-7.042-7.994-22.068-0.358-9.194 4.528-16.112 13.84-22.194 13.84-6.082 0.118-13-9.194-22.304-13.718-15.158-7.64-21.356-2.982-22.194 0.36-2.024 8.464 13.6 10.964 20.4 15.262 7.278 4.536 11.576 12.294 4.776 15.276-10.858 4.764-26.016 12.522-33.64 17.176-21.48 12.884-32.816 44.38-32.816 67.524 0 11.922 6.682 39.016 13.958 48.556 5.136 6.68 4.536 13.122-5.842 7.158-21-9.658-33.294-52.498-40.802-75.038l-52.138-156.054-95.916-282.738c-2.154-6.558 2.024-11.694 7.64-11.694l169.876 0.476c29.24 0 25.058-6.558 25.18 24.1l1.304 219.754 141.85 0.118 0.958-215.932c0.118-36.274-5.018-30.18 26.602-30.062l94.36 0.47c14.918 0-1.664-38.048-9.658-56.9-13.84-32.338-33.404-55.238-65.378-67.4-9.904-3.822-24.818-5.258-35.198-6.322-10.022-0.958-10.61 0.946-10.61-14.198l0.24-185.158-139.35-0.596-0.36 190.038c0 9.552 0 5.854-9.54 5.854-29.826 0-196.722 0.118-240.636 0.36-4.286 0-4.164 0.476-6.2-3.818-4.658-10.022-12.046-35.078-21-63.714-5.842-18.486-10.14-41.626-34.36-68.836-1.902-6.804-29.222-28.268-37.338-33.044-22.54-13.24-56.424-23.14-85.178-23.14-84.942 0-157 69.556-157 156.158 0 106.058 81 191.006 188.974 179.432l2.022-0.118c11.458 0 53.682-2.14 56.556 4.658 16.464 38.044 26.962 74.442 37.698 105.34l113.802 323.296c25.18 67.536 40.456 159.994 119.312 188.974 109.758 42.356 214.502-42.226 214.502-155.8 0-21.356-3.342-44.62-18.018-58.22-2.264-5.736-35.904-28.276-45.22-30.658zM651.236 756.522v0c3.222 0 5.722-2.622 5.722-6.082v-33.64c0-3.458-2.5-6.082-5.722-6.082v0c-3.218 0-5.6 2.622-5.6 6.082v33.64c0 3.458 2.382 6.082 5.6 6.082zM190.026 157.752c-8.358-26.838-67.178-38.416-67.178 7.64 0 11.326 4.058 19.682 10.74 24.576 6.682 4.768 16.116 5.606 26.016 5.606 7.864 0 31.962 1.782 36.622-4.298 4.658-5.958 0.242-17.776-6.2-33.52zM619.736 572.086h73.854c38.298 2.26 75.876 42.356 76.946 86.614l-229.418-0.118c0-43.902 32.576-86.258 78.618-86.496z" />
<glyph unicode="&#xe60e;" glyph-name="old-calendar" data-tags="svg" d="M872.504 739.268h-105.326v75.251h-48.211v-133.956h-43.641v58.705h-323.637v75.251h-48.211v-133.956h-43.659v58.705h-103.827v-156.553h716.511zM820.392 546.805v-399.467h-609.415v399.467h-54.442v-417.801c0-20.14 34.32-36.451 54.46-36.451h609.595c20.14 0.108 54.298 16.365 54.298 36.451v417.801h-54.497zM406.638 527.785h54.189v-49.674h-54.189v49.674zM486.964 527.785h54.189v-49.674h-54.189v49.674zM567.327 527.785h54.189v-49.674h-54.189v49.674zM647.654 527.785h54.189v-49.674h-54.189v49.674zM727.999 527.785h54.189v-49.674h-54.189v49.674zM406.638 455.532h54.189v-49.674h-54.189v49.674zM326.257 455.532h54.189v-49.674h-54.189v49.674zM245.93 455.532h54.189v-49.674h-54.189v49.674zM486.964 455.532h54.189v-49.674h-54.189v49.674zM567.327 455.532h54.189v-49.674h-54.189v49.674zM647.654 455.532h54.189v-49.674h-54.189v49.674zM727.999 455.532h54.189v-49.674h-54.189v49.674zM406.638 383.28h54.189v-49.674h-54.189v49.674zM326.257 383.28h54.189v-49.674h-54.189v49.674zM245.93 383.28h54.189v-49.674h-54.189v49.674zM486.964 383.28h54.189v-49.674h-54.189v49.674zM567.327 383.28h54.189v-49.674h-54.189v49.674zM647.654 383.28h54.189v-49.674h-54.189v49.674zM727.999 383.28h54.189v-49.674h-54.189v49.674zM406.638 311.027h54.189v-49.674h-54.189v49.674zM326.257 311.027h54.189v-49.674h-54.189v49.674zM245.93 311.027h54.189v-49.674h-54.189v49.674zM486.964 311.027h54.189v-49.674h-54.189v49.674zM406.638 238.775h54.189v-49.674h-54.189v49.674zM326.257 238.775h54.189v-49.674h-54.189v49.674zM245.93 238.775h54.189v-49.674h-54.189v49.674zM486.964 238.775h54.189v-49.674h-54.189v49.674zM567.327 311.027h54.189v-49.674h-54.189v49.674zM647.654 311.027h54.189v-49.674h-54.189v49.674zM727.999 311.027h54.189v-49.674h-54.189v49.674z" />
<glyph unicode="&#xe60f;" glyph-name="gallery" data-tags="gallery" horiz-adv-x="1217" d="M75.781 950.451c-14.662-2.605-28.648-10.032-40.507-21.51-12.051-11.479-18.906-23.15-23.054-38.68l-2.219-8.199v-649.166l2.219-8.199c6.655-25.080 24.887-45.914 48.808-55.849 15.336-6.366-18.906-5.891 446.216-5.691l422.005 0.289 7.041 2.219c27.876 8.681 49.384 30.288 57.296 57.778l2.219 7.528v653.020l-2.219 7.62c-7.909 27.201-29.613 49.097-57.103 57.682l-7.234 2.219-422.968 0.193c-361.525 0.099-424.031-0.099-430.493-1.254zM922.395 884.088c2.219-1.254 4.92-4.052 6.173-6.173l2.122-3.859v-633.246l-2.315-3.955c-1.254-2.219-4.052-4.92-6.173-6.173l-3.859-2.122h-415.35c-355.735 0-415.832 0.193-418.051 1.349-3.473 1.833-7.528 6.269-8.787 9.549-1.447 3.859-1.447 632.186 0 636.046 1.254 3.28 4.254 6.752 8.102 9.067 2.797 1.736 14.768 1.833 418.532 1.833h415.639l3.955-2.315zM226.064 819.75c-38.197-5.208-69.932-32.507-81.025-69.836-3.762-12.347-4.443-35.208-1.64-48.904 4.534-21.8 16.687-41.381 34.918-56.042 9.453-7.62 23.824-15.048 35.208-18.221 6.752-1.833 10.032-2.122 26.526-2.122 17.748 0 19.291 0.193 27.49 2.701 34.629 10.613 60.962 38.776 68.582 73.405 1.158 5.498 1.64 11.872 1.64 22.186 0 12.443-0.386 15.819-2.605 24.115-4.632 17.652-12.733 31.735-25.754 44.757-13.119 13.119-27.297 21.317-44.757 25.659-10.996 2.797-27.78 3.859-38.583 2.315zM519.103 606.481l-131.473-131.473-82.472 82.472-163.497-163.497v-98.867h723.437v229.088l-106.779 106.779c-58.839 58.839-107.068 106.875-107.358 106.875s-59.611-59.129-131.86-131.376zM1015.574 812.323v-32.989h4.052c5.305 0 11.286-3.569 14.083-8.488l2.122-3.859v-633.246l-2.315-3.955c-1.254-2.219-4.052-4.92-6.173-6.173l-3.859-2.122h-415.35c-355.735 0-415.832 0.193-418.051 1.349-3.473 1.833-7.528 6.269-8.787 9.549-0.579 1.547-1.061 5.305-1.061 8.488v5.691h-65.878l0.579-10.803c1.349-23.922 8.976-40.995 25.461-56.822 7.909-7.717 16.205-13.215 25.754-17.169 15.336-6.366-18.906-5.891 446.216-5.691l422.005 0.289 7.041 2.219c27.876 8.681 49.384 30.288 57.296 57.778l2.219 7.528v653.020l-2.219 7.62c-6.269 21.703-21.896 40.898-41.67 51.123-10.613 5.498-20.256 8.199-32.024 8.976l-9.453 0.579v-32.899zM1120.714 701.396v-32.989h4.052c5.305 0 11.286-3.569 14.083-8.488l2.122-3.859v-633.246l-2.315-3.955c-1.254-2.219-4.052-4.92-6.173-6.173l-3.859-2.122h-415.35c-355.735 0-415.832 0.193-418.051 1.349-3.473 1.833-7.528 6.269-8.787 9.549-0.579 1.547-1.061 5.305-1.061 8.488v5.691h-65.878l0.579-10.803c1.349-23.922 8.976-40.995 25.461-56.822 7.909-7.717 16.205-13.215 25.754-17.169 15.336-6.366-18.906-5.891 446.216-5.691l422.005 0.289 7.041 2.219c27.876 8.681 49.384 30.288 57.296 57.778l2.219 7.528v653.020l-2.219 7.62c-6.269 21.703-21.896 40.898-41.67 51.123-10.613 5.498-20.256 8.199-32.024 8.976l-9.453 0.579v-32.899z" />
<glyph unicode="&#xe613;" glyph-name="clock" data-tags="svg" d="M741.885 627.813l19.328 25.144 10.17-7.84c12.482-9.592 30.401-7.243 39.974 5.22 9.61 12.482 7.262 30.401-5.22 39.993l-50.505 38.836c-12.482 9.592-30.401 7.243-39.993-5.238-9.592-12.464-7.262-30.383 5.22-39.974l10.188-7.84-19.328-25.144c-21.279 14.469-44.328 26.391-68.587 35.964 9.935 19.563 15.643 41.636 15.643 65.101 0 79.66-64.577 144.237-144.237 144.237s-144.219-64.577-144.219-144.237c0-23.446 5.708-45.52 15.643-65.101-130.292-51.354-222.632-178.052-222.632-326.588 0-193.966 157.242-351.208 351.208-351.208s351.208 157.242 351.208 351.208c0.018 107.207-48.157 203.033-123.861 267.466zM410.709 752.035c0 57.37 46.495 103.865 103.847 103.865 57.37 0 103.865-46.495 103.865-103.865 0-19.147-5.275-37.030-14.324-52.42-22.706 5.979-46.279 9.7-70.52 11.001v34.718h12.843c15.769 0 28.522 12.771 28.522 28.504 0 15.751-12.753 28.522-28.522 28.522h-63.71c-15.751 0-28.504-12.771-28.504-28.522 0-15.733 12.753-28.504 28.504-28.504h12.861v-34.718c-24.259-1.301-47.814-5.022-70.538-11.001-9.050 15.39-14.324 33.273-14.324 52.42zM514.556 114.503c-135.783 0-245.844 110.079-245.844 245.844 0 135.801 110.079 245.844 245.844 245.844s245.844-110.061 245.844-245.844c0-135.783-110.061-245.844-245.844-245.844zM676.35 483.179l-123.337-73.446c-10.314 9.014-23.681 14.668-38.457 14.668-32.406 0-58.688-26.282-58.688-58.688 0-4.444 0.596-8.725 1.517-12.897l-67.883-40.426 26.987-40.209 62.536 47.073c9.899-7.569 22.11-12.265 35.531-12.265 32.424 0 58.706 26.282 58.706 58.706 0 7.551-1.553 14.722-4.137 21.369l114.089 85.91-6.864 10.206zM514.556 337.497c-15.553 0-28.179 12.608-28.179 28.179s12.608 28.197 28.179 28.197 28.179-12.626 28.179-28.197-12.626-28.179-28.179-28.179z" />
<glyph unicode="&#xe615;" glyph-name="reminder" data-tags="svg" d="M696.293 815.366c-159.862 0-289.449-129.587-289.449-289.449 0-159.844 129.587-289.467 289.449-289.467s289.449 129.623 289.449 289.467c0 159.862-129.605 289.449-289.449 289.449zM710.238 295.066v66.076h-46.513v-64.234c-102.691 14.487-183.579 96.116-196.856 199.186h61.904v46.531h-63.186c7.821 109.139 91.13 197.181 198.138 212.282v-77.312h46.513v79.154c115.787-6.936 208.489-98.717 216.762-214.124h-81.755v-46.531h80.473c-14.071-109.194-104.1-194.363-215.479-201.028zM797.773 651.837l-123.771-130.725c-2.818-2.999-0.741-9.556 4.678-14.704 5.437-5.13 12.121-6.864 14.938-3.866l123.753 130.725c2.818 2.98 0.759 9.556-4.678 14.686-5.419 5.148-12.121 6.864-14.92 3.884zM681.968 543.095l-74.801 86.307c-1.68 1.969-8.978-1.535-16.311-7.894-7.334-6.376-11.85-13.096-10.152-15.065l74.801-86.307c1.716-1.969 9.032 1.572 16.347 7.894 7.298 6.376 11.832 13.114 10.116 15.065zM707.022 493.077c-1.12 2.854-5.437 3.829-9.7 2.204s-6.828-5.275-5.726-8.129l48.284-125.071c1.102-2.854 5.437-3.848 9.718-2.222 4.245 1.662 6.792 5.329 5.672 8.165l-48.248 125.053zM359.427 198.534c-28.035-19.129-78.432 41.42-120.249 102.727-41.799 61.253-79.822 130.292-51.77 149.421 40.155 27.402 73.518 42.684 27.727 128.449-45.827 85.783-96.513 36.127-135.422 9.592-44.906-30.636-35.711-178.178 77.149-343.621 112.879-165.425 246.891-227.798 291.815-197.145 38.927 26.553 103.63 55.654 40.462 129.569-63.15 73.916-89.523 48.428-129.714 21.008z" />
<glyph unicode="&#xe616;" glyph-name="invoice" data-tags="svg" d="M732.745 803.733h-465.893c-19.906 0-36.019-14.776-36.019-33.020v-644.432c0-18.244 16.131-33.020 36.019-33.020h465.893c19.888 0 36.019 14.776 36.019 33.020v644.432c0 18.244-16.149 33.020-36.019 33.020zM294.904 706.172h409.625v-227.871h-409.625v227.871zM397.559 177.22h-102.42v94.418h102.42v-94.418zM397.559 321.727h-102.42v94.454h102.42v-94.454zM551.098 177.22h-102.384v94.418h102.384v-94.418zM551.098 321.727h-102.384v94.454h102.384v-94.454zM704.674 177.22h-102.42v94.418h102.42v-94.418zM704.674 321.727h-102.42v94.454h102.42v-94.454z" />
<glyph unicode="&#xe617;" glyph-name="old-sms" data-tags="svg" d="M692.559 650.56l0.361 0.271 0.379-0.271v0.542l238.686 175.7h-478.114l238.668-175.7zM931.986 810.654l-239.066-181.336-239.048 181.336-0.235-335.053h0.867c-1.77-13.042-5.473-26.011-12.915-33.489-24.855-24.855-47.777-46.242-47.777-46.242s143.656-9.068 182.257 62.083c3.324 6.087 5.852 11.741 8.038 17.196l109.86-0.379v0.379l238.217 0.434-0.199 335.071zM527.805 396.448v-138.58h-362.762v486.152h267.877l0.036 43.659h-234.64c-47.488 0-85.963-38.475-85.963-85.963v-539.384c0-47.488 38.475-85.944 85.963-85.944h296.832c47.488 0 85.963 38.456 85.963 85.944v271.092c-13.891-16.582-32.658-28.54-53.304-36.975zM295.242 131.389h-72.253c-21.188 0-38.384 17.178-38.384 38.384s17.196 38.384 38.384 38.384h72.253c-21.188 0-20.321-17.178-20.321-38.384s-0.885-38.384 20.321-38.384zM344.916 132.906c-21.206 0-38.384 17.178-38.384 38.384s17.178 38.384 38.384 38.384 38.384-17.178 38.384-38.384-17.178-38.384-38.384-38.384zM464.602 131.389h-72.253c21.206 0 20.321 17.178 20.321 38.384s0.885 38.384-20.321 38.384h72.253c21.206 0 38.384-17.178 38.384-38.384s-17.178-38.384-38.384-38.384zM191.325 708.778v-415.669h310.162v94.452c-36.488-9.989-73.914-11.777-95.879-11.777-10.748 0-17.268 0.415-17.268 0.415l-41.744 2.709 30.545 28.54c0.072 0.072 23.301 21.73 48.5 46.928 1.156 1.156 4.787 5.672 7.207 18.406l-0.145 3.161 0.163 232.852h-241.54z" />
<glyph unicode="&#xe618;" glyph-name="mail" data-tags="svg" d="M888.797 185.47l-0.578 341.881-181.39-181.39 133.216-170.823-176.116 156.535h-279.383l-176.116-156.535 133.216 170.823-181.39 181.39-0.596-341.881c0 0-4.010-27.311 13.421-44.742 17.431-17.467 32.333-18.316 32.333-18.316h637.647c0 0 14.884 0.849 32.333 18.316 17.431 17.431 13.403 44.742 13.403 44.742zM487.602 515.039l-5.484 44.877 44.877 5.484 5.484-44.877-44.877-5.484zM457.828 476.988l5.505-44.86-44.877-5.507-5.505 44.86 44.877 5.507zM536.583 486.651l5.502-44.877-44.877-5.502-5.502 44.877 44.877 5.502zM408.838 505.394l-5.502 44.877 44.877 5.502 5.502-44.877-44.877-5.502zM330.089 495.734l-5.502 44.877 44.877 5.502 5.502-44.877-44.877-5.502zM379.088 467.343l5.484-44.842-44.877-5.489-5.484 44.842 44.877 5.489zM611.207 530.243l-44.877-5.502-5.502 44.877 44.877 5.502 5.502-44.877zM286.518 443.52l-16.961 138.255 458.551 56.249 22.452-183.016 26.246 4.227 91.436 91.436-307.074 266.431c0 0-3.396 7.912-35.006 7.912-0.488 0-0.939-0.397-1.409-0.596-0.452 0.199-0.885 0.596-1.373 0.596-31.611 0-35.006-7.912-35.006-7.912l-307.074-266.431 91.436-91.436 13.782-15.715zM689.971 539.915l-44.877-5.502-5.502 44.877 44.877 5.502 5.502-44.877z" />
<glyph unicode="&#xe619;" glyph-name="search-user" data-tags="svg" d="M505.19 561.13c41.419 0 75.052 41.112 75.052 79.388 0 38.294-33.616 69.308-75.052 69.308s-75.034-31.032-75.034-69.308c0-38.276 33.597-79.388 75.034-79.388zM574.643 564.435c-17.232 1.716-46.585-79.315-46.585-79.315l-13.168 46.043 4.064 20.484-13.8-0.813-13.782 0.813 4.064-20.484-13.168-46.043c0 0-29.371 81.031-46.603 79.315-66.599-6.575-74.33-46.043-74.33-110.456 0-58.272 51.101-66.238 143.421-66.292 0.145 0 0.271 0 0.397 0 0.145 0 0.271 0 0.397 0 92.339 0.054 143.421 8.020 143.421 66.292 0.018 64.395-7.713 103.863-74.33 110.456zM891.561 516.766c30.834 0 55.833 30.599 55.833 59.085s-24.999 51.57-55.833 51.57c-30.852 0-55.869-23.103-55.869-51.57 0.018-28.486 25.017-59.085 55.869-59.085zM797.669 549.804c0 156.86-127.147 284.007-284.007 284.007-156.842 0-284.007-127.147-284.007-284.007 0-156.878 127.165-284.007 284.007-284.007 57.423 0 110.745 17.16 155.415 46.44l169.974-235.020 131.084 135.672-220.985 178.067c30.635 45.357 48.518 100.016 48.518 158.847zM513.68 323.292c-125.087 0-226.512 101.407-226.512 226.512 0 125.087 101.425 226.512 226.512 226.512 125.105 0 226.512-101.425 226.512-226.512 0-125.105-101.425-226.512-226.512-226.512zM943.24 519.205c-12.807 1.282-34.663-59.012-34.663-59.012l-9.808 34.266 3.017 15.227-10.242-0.614-10.26 0.614 3.035-15.227-9.808-34.266c0 0-21.838 60.313-34.663 59.030-10.874-1.084-19.31-3.522-26.372-6.882-4.173-31.701-13.529-61.722-27.275-89.214 7.912-30.707 44.544-35.404 105.055-35.44 0.108 0 0.199 0 0.289 0 0.108 0 0.199 0 0.307 0 68.73 0.036 106.735 5.979 106.735 49.33-0.018 47.922-5.762 77.31-55.345 82.187zM134.444 516.766c30.852 0 55.851 30.599 55.851 59.085s-24.999 51.57-55.851 51.57c-30.834 0-55.851-23.103-55.851-51.57 0-28.486 25.017-59.085 55.851-59.085zM186.195 519.205c-12.825 1.282-34.681-59.030-34.681-59.030l-9.808 34.266 3.017 15.227-10.26-0.614-10.26 0.632 3.017-15.227-9.808-34.266c0 0-21.838 60.313-34.645 59.030-49.583-4.895-55.327-34.266-55.327-82.187 0-43.352 38.023-49.294 106.735-49.33 0.108 0 0.199 0 0.307 0 0.090 0 0.199 0 0.289 0 60.512 0.036 97.144 4.733 105.055 35.44-13.728 27.474-23.103 57.513-27.275 89.214-7.063 3.324-15.498 5.78-26.354 6.846z" />
<glyph unicode="&#xe61a;" glyph-name="contacts-maps" data-tags="svg" d="M660.75 691.004v-197.683h34.103v197.683c23.898 7.352 41.419 29.335 41.419 55.653 0 32.297-26.192 58.47-58.452 58.47-32.279 0-58.47-26.174-58.47-58.47-0.018-26.336 17.503-48.301 41.401-55.653zM641.26 616.656c-44.345-0.524-90.207 0.686-126.677 5.762-104.748 14.613-243.6 41.401-319.104 19.49l-56.032-438.465c0 0 253.336 29.226 353.225-4.895 99.871-34.103 207.040 2.457 280.123 2.457s104.748 0 104.748 0l-75.522 423.834c0 0-37.264-3.468-87.679-5.925v-145.119h-73.084v142.861zM656.379 417.040c-0.397 11.831 8.869 21.766 20.7 22.182 12.193-0.108 21.748-8.869 22.163-20.7 1.156-33.959-10.368-64.467-33.381-88.275-24.458-25.343-60.981-41.058-95.229-41.058-59.193 0-94.687 26.788-108.487 81.989-5.563 22.254-11.94 22.832-33.056 24.692-7.424 0.65-15.805 1.409-24.421 3.54-4.967 1.246-11.669 1.716-18.768 2.168-25.288 1.68-72.343 4.751-80.128 67.123-5.184 41.383-64.377 52.040-64.973 52.148-11.687 1.879-19.635 12.879-17.738 24.566 1.879 11.705 12.861 19.635 24.584 17.756 3.739-0.614 91.472-15.588 100.684-89.142 3.233-26.011 12.301-27.853 40.407-29.696 8.67-0.578 17.648-1.156 26.336-3.342 5.365-1.355 11.398-1.879 17.792-2.457 23.067-2.041 57.929-5.148 70.88-57.007 9.032-36.090 27.167-49.511 66.888-49.511 22.687 0 47.976 10.982 64.395 27.98 14.92 15.534 22.127 34.699 21.351 57.043zM866.2 709.121l-71.404-6.665c-0.434-0.036-22.868-2.095-55.942-4.136-6.593-8.255-14.884-15.209-24.512-20.285v-11.163c28.775 1.788 48.192 3.595 48.554 3.649l63.42 5.889 92.718-520.435h-175.664c-15.661 0-36.975-2.926-59.536-6.015-31.087-4.227-66.292-9.068-103.773-9.068-39.775 0-75.034 5.455-107.801 16.636-12.012 4.118-42.665 11-113.093 11-83.217 0-169.432-9.826-170.299-9.935l-87.769-10.097 66.689 522.025 43.623 12.68c23.446 6.774 51.065 10.097 84.445 10.097 57.712 0 124.816-10.043 184.045-18.912 15.083-2.276 29.75-4.48 43.731-6.43 21.838-3.017 50.956-4.606 86.595-4.606 10.386 0 20.773 0.145 31.014 0.379v14.306c-8.056 4.245-15.065 9.899-21.044 16.437-38.836 0.072-70.844 1.77-94.85 5.148-15.769 2.186-32.279 4.66-49.258 7.207-66.689 9.989-142.283 21.315-207.275 21.315-37.589 0-68.694-3.739-95.102-11.38l-49.078-14.252-75.089-587.865 98.823 11.344c0.975 0.108 98.065 11.145 191.758 11.145 79.351 0 113.834-7.731 127.345-12.337 36.921-12.644 76.642-18.768 121.42-18.768 42.214 0 81.862 5.455 116.851 10.224 25.433 3.468 49.439 6.774 67.068 6.774h197.81l-104.423 586.095z" />
<glyph unicode="&#xe61b;" glyph-name="more-money" data-tags="svg" d="M354.218 226.582c0-22.187-47.609-40.172-106.338-40.172s-106.338 17.986-106.338 40.172c0 22.187 47.609 40.172 106.338 40.172s106.338-17.986 106.338-40.172zM341.701 188.758c-17.901-12.644-53.178-21.278-93.82-21.278s-75.919 8.634-93.82 21.278c-7.966-5.636-12.518-12.084-12.518-18.912 0-22.2 47.614-40.191 106.338-40.191s106.356 17.991 106.356 40.191c-0.018 6.828-4.552 13.258-12.536 18.912zM341.701 132.021c-17.901-12.644-53.178-21.26-93.82-21.26s-75.919 8.616-93.82 21.26c-7.966-5.636-12.518-12.066-12.518-18.912 0-22.2 47.614-40.172 106.338-40.172s106.356 17.973 106.356 40.172c-0.018 6.846-4.552 13.294-12.536 18.912zM587.504 188.758c-17.919-12.644-53.196-21.278-93.838-21.278s-75.919 8.634-93.82 21.278c-7.948-5.636-12.518-12.084-12.518-18.912 0-22.2 47.614-40.191 106.338-40.191s106.356 17.991 106.356 40.191c0 6.828-4.57 13.258-12.518 18.912zM587.504 132.021c-17.919-12.644-53.196-21.26-93.838-21.26s-75.919 8.616-93.82 21.26c-7.948-5.636-12.518-12.066-12.518-18.912 0-22.2 47.614-40.172 106.338-40.172s106.356 17.973 106.356 40.172c0 6.846-4.57 13.294-12.518 18.912zM600.004 340c0-22.187-47.609-40.172-106.338-40.172s-106.338 17.986-106.338 40.172c0 22.187 47.609 40.172 106.338 40.172s106.338-17.986 106.338-40.172zM587.504 302.176c-17.919-12.644-53.196-21.278-93.838-21.278s-75.919 8.634-93.82 21.278c-7.948-5.636-12.518-12.066-12.518-18.912 0-22.2 47.614-40.172 106.338-40.172s106.356 17.973 106.356 40.172c0 6.846-4.57 13.294-12.518 18.912zM587.504 245.458c-17.919-12.644-53.196-21.278-93.838-21.278s-75.919 8.634-93.82 21.278c-7.948-5.636-12.518-12.084-12.518-18.912 0-22.2 47.614-40.172 106.338-40.172s106.356 17.973 106.356 40.172c0 6.828-4.57 13.294-12.518 18.912zM833.289 188.758c-17.919-12.644-53.214-21.278-93.838-21.278-40.642 0-75.901 8.634-93.82 21.278-7.966-5.636-12.5-12.084-12.5-18.912 0-22.2 47.596-40.191 106.338-40.191 58.723 0 106.356 17.991 106.356 40.191-0.036 6.828-4.606 13.258-12.536 18.912zM833.289 132.021c-17.919-12.644-53.214-21.26-93.838-21.26-40.642 0-75.901 8.616-93.82 21.26-7.966-5.636-12.5-12.066-12.5-18.912 0-22.2 47.596-40.172 106.338-40.172 58.723 0 106.356 17.973 106.356 40.172-0.036 6.846-4.606 13.294-12.536 18.912zM833.289 302.176c-17.919-12.644-53.214-21.278-93.838-21.278-40.642 0-75.901 8.634-93.82 21.278-7.966-5.636-12.5-12.066-12.5-18.912 0-22.2 47.596-40.172 106.338-40.172 58.723 0 106.356 17.973 106.356 40.172-0.036 6.846-4.606 13.294-12.536 18.912zM833.289 245.458c-17.919-12.644-53.214-21.278-93.838-21.278-40.642 0-75.901 8.634-93.82 21.278-7.966-5.636-12.5-12.084-12.5-18.912 0-22.2 47.596-40.172 106.338-40.172 58.723 0 106.356 17.973 106.356 40.172-0.036 6.828-4.606 13.294-12.536 18.912zM845.789 453.437c0-22.187-47.609-40.172-106.338-40.172s-106.338 17.986-106.338 40.172c0 22.187 47.609 40.172 106.338 40.172s106.338-17.986 106.338-40.172zM833.289 415.613c-17.919-12.644-53.214-21.278-93.838-21.278-40.642 0-75.901 8.634-93.82 21.278-7.966-5.636-12.5-12.084-12.5-18.912 0-22.2 47.596-40.191 106.338-40.191 58.723 0 106.356 17.991 106.356 40.191-0.036 6.828-4.606 13.276-12.536 18.912zM833.289 358.894c-17.919-12.644-53.214-21.26-93.838-21.26-40.642 0-75.901 8.616-93.82 21.26-7.966-5.636-12.5-12.066-12.5-18.894 0-22.2 47.596-40.191 106.338-40.191 58.723 0 106.356 17.991 106.356 40.191-0.036 6.828-4.606 13.258-12.536 18.894zM257.237 403.818l183.612-7.063 87.751 135.148h138.924l71.006 101.172 52.871-63.835 42.539 255.232-203.229-153.609 72.993-14.974-57.82-82.404h-139.899l-87.137-134.263-185.057 7.135-84.265-145.553 36-20.827z" />
<glyph unicode="&#xe61c;" glyph-name="check" data-tags="svg" d="M346.072 575.074l204.439-299.18 329.093 453.746-329.093-224.399zM693.643 276.852c0-32.73-26.499-59.193-59.157-59.193h-285.145c-32.676 0-59.157 26.481-59.157 59.193v285.091c0 32.676 26.499 59.139 59.157 59.139h285.145c12.843 0 24.62-4.173 34.32-11.127l81.645 55.671c-14.884 18.442-37.391 30.491-62.95 30.491h-391.176c-44.815 0-81.158-36.289-81.158-81.158v-391.158c0-44.869 36.343-81.158 81.158-81.158h391.158c44.833 0 81.158 36.289 81.158 81.158v319.013l-74.998-103.412v-162.55z" />
<glyph unicode="&#xe900;" glyph-name="dashboard" data-tags="icon-dashboard" d="M512 842.581c-262.771-1.511-475.203-214.877-475.203-477.859 0-110.535 37.529-212.304 100.54-293.262l-0.804 1.073c8.074-10.024 20.347-16.384 34.106-16.384 0.010 0 0.019 0 0.029 0h684.713c13.001 0.632 24.432 6.855 32.019 16.299l0.066 0.085c63.812 79.755 102.402 182.106 102.402 293.47 0 0.507-0.001 1.014-0.002 1.521v-0.079c-1.549 262.742-214.9 475.136-477.859 475.136-0.003 0-0.005 0-0.008 0v0zM832.171 140.8h-264.192l136.533 233.472c3.648 6.245 5.801 13.748 5.801 21.755 0 15.947-8.544 29.898-21.303 37.527l-0.199 0.11c-6.287 3.803-13.881 6.054-22.002 6.054-15.937 0-29.849-8.668-37.279-21.547l-0.111-0.208-161.109-277.163h-277.845c-33.174 46.772-56.192 103.014-64.63 163.918l-0.224 1.97h53.931c1.637-0.217 3.529-0.341 5.451-0.341 24.13 0 43.691 19.561 43.691 43.691s-19.561 43.691-43.691 43.691c-1.921 0-3.814-0.124-5.67-0.365l0.219 0.023h-57.344c6.23 80.813 36.344 153.581 83.208 212.414l-0.605-0.787 41.643-41.643c7.494-7.992 18.118-12.971 29.905-12.971 0.046 0 0.093 0 0.139 0h-0.007c12.039 0.018 22.916 4.979 30.712 12.962l0.008 0.008c7.645 7.959 12.353 18.79 12.353 30.72s-4.708 22.761-12.368 30.735l0.014-0.015-43.008 42.325c55.52 47.118 125.443 78.869 202.317 87.892l1.8 0.172v-68.267c0-24.13 19.561-43.691 43.691-43.691s43.691 19.561 43.691 43.691v0 68.267c74.903-10.034 141.453-39.811 195.989-83.869l-0.746 0.583-47.104-47.104c-7.969-7.812-12.909-18.689-12.909-30.72s4.94-22.908 12.902-30.713l0.007-0.007c7.503-8.076 18.182-13.113 30.038-13.113 1.201 0 2.391 0.052 3.566 0.153l-0.153-0.011c0.127-0.001 0.277-0.002 0.428-0.002 11.696 0 22.227 4.985 29.585 12.946l0.025 0.027 48.469 47.787c47.92-59.193 79.25-133.599 85.923-214.989l0.093-1.417h-57.344c-1.637 0.217-3.529 0.341-5.451 0.341-24.13 0-43.691-19.561-43.691-43.691s19.561-43.691 43.691-43.691c1.921 0 3.814 0.124 5.67 0.365l-0.219-0.023h53.931c-8.954-63.461-32.444-120.158-66.995-168.393l0.776 1.14z" />
<glyph unicode="&#xe901;" glyph-name="base-data" data-tags="icon-base-data" d="M918.187 925.867h-812.373c-21.041-1.469-37.554-18.899-37.554-40.185 0-0.272 0.003-0.544 0.008-0.815l-0.001 0.041v-873.813c-0.004-0.203-0.006-0.443-0.006-0.683 0-22.245 18.033-40.277 40.277-40.277 0.002 0 0.004 0 0.006 0h812.373c0.002 0 0.004 0 0.006 0 22.245 0 40.277 18.033 40.277 40.277 0 0.24-0.002 0.48-0.006 0.719v-0.036 873.813c0.005 0.231 0.007 0.503 0.007 0.776 0 22.245-18.033 40.277-40.277 40.277-0.963 0-1.919-0.034-2.866-0.1l0.127 0.007zM146.773 550.4h720.213c1.537-0.186 3.316-0.292 5.12-0.292s3.583 0.106 5.332 0.312l-0.212-0.020v-209.579c-1.537 0.186-3.316 0.292-5.12 0.292s-3.583-0.106-5.332-0.312l0.212 0.020h-720.213zM877.227 841.899v-209.579c-1.537 0.186-3.316 0.292-5.12 0.292s-3.583-0.106-5.332-0.312l0.212 0.020h-720.213v212.309zM146.773 51.371v210.261h720.213c1.537-0.186 3.316-0.292 5.12-0.292s3.583 0.106 5.332 0.312l-0.212-0.020v-212.309zM461.483 699.221h101.035c0.203-0.004 0.443-0.006 0.683-0.006 22.245 0 40.277 18.033 40.277 40.277 0 0.002 0 0.004 0 0.006v0c0 22.622-18.338 40.96-40.96 40.96v0h-101.035c-22.622 0-40.96-18.338-40.96-40.96v0c0-0.002 0-0.004 0-0.006 0-22.245 18.033-40.277 40.277-40.277 0.24 0 0.48 0.002 0.719 0.006h-0.036zM562.517 488.96h-101.035c-22.622 0-40.96-18.338-40.96-40.96s18.338-40.96 40.96-40.96h101.035c22.622 0 40.96 18.338 40.96 40.96s-18.338 40.96-40.96 40.96v0zM562.517 197.461h-101.035c-22.622 0-40.96-18.338-40.96-40.96v0c0-0.002 0-0.004 0-0.006 0-22.245 18.033-40.277 40.277-40.277 0.24 0 0.48 0.002 0.719 0.006h100.999c0.203-0.004 0.443-0.006 0.683-0.006 22.245 0 40.277 18.033 40.277 40.277 0 0.002 0 0.004 0 0.006v0c0 22.622-18.338 40.96-40.96 40.96v0z" />
<glyph unicode="&#xe902;" glyph-name="seminar" data-tags="icon-seminar" d="M997.376 624.811l-471.040 198.656c-4.262 1.612-9.19 2.545-14.336 2.545s-10.073-0.933-14.623-2.64l0.287 0.094-471.040-198.656c-15.833-7.218-26.64-22.907-26.64-41.121 0-0.424 0.006-0.846 0.017-1.267l-0.001 0.062c-0.007-0.302-0.011-0.658-0.011-1.015 0-18.451 10.765-34.388 26.356-41.873l0.279-0.121 193.195-79.872v-182.272c0-95.573 157.696-129.707 292.181-129.707s292.181 34.133 292.181 129.707v182.272l60.075 22.528v-181.589c-13.473-13.447-21.816-32.029-21.845-52.56v-0.005c16.314-66.942 37.845-125.386 65.069-180.516l-2.264 5.071c24.96 50.059 46.491 108.504 61.561 169.494l1.244 5.951c-0.029 20.536-8.373 39.118-21.844 52.564l-0.001 0.001v217.771l51.2 21.163c15.87 7.606 26.635 23.542 26.635 41.993 0 0.357-0.004 0.713-0.012 1.067l0.001-0.053c0.010 0.359 0.016 0.781 0.016 1.205 0 18.213-10.807 33.903-26.359 41.005l-0.282 0.115zM512 729.259l353.621-146.773-353.621-146.773-353.621 146.773zM722.261 283.477c-51.077-29.276-112.281-46.541-177.516-46.541-11.529 0-22.932 0.539-34.185 1.594l1.44-0.109c-9.813-0.946-21.216-1.485-32.745-1.485-65.236 0-126.439 17.265-179.29 47.475l1.774-0.934v141.995l195.925-79.872c4.247-1.732 9.174-2.737 14.336-2.737s10.089 1.005 14.597 2.83l-0.261-0.093 195.925 81.237z" />
<glyph unicode="&#xe903;" glyph-name="voucher" data-tags="icon-voucher" d="M910.677 4.267h-799.403c-0.002 0-0.004 0-0.005 0-23.753 0-43.008 19.255-43.008 43.008 0 0.24 0.002 0.48 0.006 0.719v-0.036 868.352c-0.003 0.203-0.005 0.443-0.005 0.683 0 23.753 19.255 43.008 43.008 43.008 0.002 0 0.004 0 0.006 0h801.45c12.246-0.064 23.326-5.004 31.408-12.976l-0.005 0.005c7.203-8.048 11.606-18.733 11.606-30.447 0-0.096 0-0.192-0.001-0.288v0.015-871.765c-1.813-22.627-20.622-40.303-43.559-40.303-0.526 0-1.051 0.009-1.573 0.028l0.076-0.002zM154.283 90.965h712.704v782.336h-712.704zM385.024 508.075h-6.827c-65.454 4.343-116.9 58.499-116.9 124.67 0 2.252 0.060 4.49 0.177 6.713l-0.013-0.311c1.879 33.931 17.567 63.864 41.489 84.521l0.154 0.13c21.683 19.589 50.56 31.575 82.237 31.575 2.29 0 4.565-0.063 6.824-0.186l-0.314 0.014c66.639-2.088 119.865-56.61 119.865-123.563 0-68.273-55.346-123.62-123.62-123.62-1.32 0-2.636 0.021-3.946 0.062l0.192-0.005zM385.024 668.501c-19.528-0.313-35.414-15.488-36.856-34.691l-0.008-0.125c-0.018-0.436-0.029-0.948-0.029-1.463 0-19.786 15.304-35.997 34.72-37.442l0.124-0.007c0.628-0.038 1.362-0.060 2.102-0.060 19.66 0 35.726 15.39 36.806 34.78l0.004 0.096c0.018 0.436 0.029 0.948 0.029 1.463 0 19.786-15.304 35.997-34.72 37.442l-0.124 0.007zM638.976 209.067h-6.827c-65.167 3.806-116.572 57.582-116.572 123.365 0 36.677 15.98 69.621 41.357 92.251l0.122 0.107c21.779 19.605 50.75 31.596 82.522 31.596 2.43 0 4.843-0.070 7.239-0.209l-0.331 0.015c65.145-4.69 116.22-58.693 116.22-124.624 0-2.268-0.060-4.522-0.18-6.76l0.013 0.312c-4.074-64.933-57.734-116.054-123.334-116.054-0.080 0-0.161 0-0.241 0h0.012zM638.976 369.493c-20.359 0-36.864-16.505-36.864-36.864s16.505-36.864 36.864-36.864v0c0.317-0.009 0.69-0.015 1.064-0.015 9.805 0 18.762 3.626 25.605 9.611l-0.045-0.039c7.228 6.151 11.896 15.123 12.286 25.193l0.002 0.066c0.048 0.691 0.075 1.498 0.075 2.311 0 9.416-3.666 17.977-9.649 24.331l0.017-0.018c-6.151 7.228-15.123 11.896-25.193 12.286l-0.066 0.002zM346.112 265.728c-11.577 0.039-22.118 4.438-30.076 11.64l0.039-0.034c-7.969 7.812-12.909 18.689-12.909 30.72s4.94 22.908 12.902 30.713l0.007 0.007 304.469 329.045c7.889 7.803 18.741 12.624 30.72 12.624s22.831-4.821 30.724-12.628l-0.004 0.004c7.969-7.812 12.909-18.689 12.909-30.72s-4.94-22.908-12.902-30.713l-0.007-0.007-304.469-329.045c-7.381-7.233-17.499-11.697-28.66-11.697-0.965 0-1.922 0.033-2.87 0.099l0.128-0.007z" />
<glyph unicode="&#xe904;" glyph-name="visit-reports" data-tags="icon-visit-reports" d="M972.117 693.077c0.055 0.842 0.087 1.826 0.087 2.817 0 12.461-4.983 23.758-13.065 32.007l0.008-0.008-231.424 219.819c-7.675 7.753-18.319 12.553-30.084 12.553-1.667 0-3.312-0.096-4.929-0.284l0.197 0.019h-430.080c-24.13 0-43.691-19.561-43.691-43.691v0-450.56c-0.217-1.649-0.341-3.557-0.341-5.493 0-24.507 19.867-44.373 44.373-44.373s44.373 19.867 44.373 44.373c0 1.936-0.124 3.844-0.365 5.715l0.023-0.221v406.187h337.237v-185.003c0-24.13 19.561-43.691 43.691-43.691v0h199.339v-434.176h-107.179c-22.029-2.827-38.88-21.462-38.88-44.032s16.851-41.205 38.659-44.009l0.221-0.023h148.821c24.211 0.384 43.691 20.101 43.691 44.368 0 0.002 0 0.004 0 0.006v0 521.557s-0.683 4.779-0.683 6.144zM732.501 823.467l92.843-88.747h-92.843zM529.067 331.264c-12.937-0.101-25.373-2.089-37.095-5.704l0.914 0.243c-27.044 41.382-73.152 68.345-125.557 68.345-1.699 0-3.392-0.028-5.077-0.085l0.245 0.006c-1.459 0.051-3.172 0.081-4.893 0.081-52.189 0-98.074-26.987-124.462-67.768l-0.351-0.58c-10.808 3.372-23.244 5.361-36.129 5.461h-0.052c-0.609 0.009-1.328 0.014-2.048 0.014-81.061 0-146.773-65.713-146.773-146.773s65.713-146.773 146.773-146.773c81.056 0 146.765 65.704 146.773 146.758v0.001c-0.611 35.428-13.396 67.756-34.337 93.096l0.203-0.253c10.736 18.134 30.199 30.104 52.458 30.104 0.998 0 1.991-0.024 2.978-0.072l-0.139 0.005c0.933 0.051 2.024 0.079 3.123 0.079 22.376 0 41.958-11.961 52.701-29.839l0.155-0.278c-21.398-25.533-34.5-58.652-34.816-94.823v-0.068c1.909-78.825 66.262-141.995 145.368-141.995 80.307 0 145.408 65.101 145.408 145.408 0 80.293-65.079 145.385-145.366 145.408h-0.002zM196.608 126.464c-0.405-0.010-0.883-0.016-1.362-0.016-32.424 0-58.709 26.285-58.709 58.709s26.285 58.709 58.709 58.709c32.424 0 58.709-26.285 58.709-58.709 0-0.234-0.001-0.469-0.004-0.702v0.036c0.003-0.203 0.004-0.443 0.004-0.683 0-31.67-25.674-57.344-57.344-57.344-0.001 0-0.003 0-0.004 0v0zM529.067 126.464c-0.405-0.010-0.883-0.016-1.362-0.016-32.424 0-58.709 26.285-58.709 58.709s26.285 58.709 58.709 58.709c32.424 0 58.709-26.285 58.709-58.709 0-0.234-0.001-0.469-0.004-0.702v0.036c0-0.001 0-0.003 0-0.004 0-31.807-25.592-57.637-57.308-58.022h-0.036z" />
<glyph unicode="&#xe905;" glyph-name="applicants-overview" data-tags="icon-applicants-overview" d="M912.725-29.867h-801.451c-0.002 0-0.004 0-0.005 0-23.753 0-43.008 19.255-43.008 43.008 0 0.24 0.002 0.48 0.006 0.719v-0.036 868.352c-0.003 0.203-0.005 0.443-0.005 0.683 0 23.753 19.255 43.008 43.008 43.008 0.002 0 0.004 0 0.006 0h801.45c0.205 0.004 0.446 0.006 0.688 0.006 23.753 0 43.008-19.255 43.008-43.008 0-0.242-0.002-0.484-0.006-0.725v0.036-868.352c0.004-0.205 0.006-0.446 0.006-0.688 0-23.753-19.255-43.008-43.008-43.008-0.242 0-0.484 0.002-0.725 0.006h0.036zM154.283 56.832h715.435v782.336h-715.435zM712.704 277.333h-401.408c-24.13 0-43.691 19.561-43.691 43.691s19.561 43.691 43.691 43.691h401.408c24.13 0 43.691-19.561 43.691-43.691s-19.561-43.691-43.691-43.691v0zM712.704 140.8h-401.408c-24.13 0-43.691 19.561-43.691 43.691s19.561 43.691 43.691 43.691h401.408c24.13 0 43.691-19.561 43.691-43.691s-19.561-43.691-43.691-43.691v0zM561.835 431.616h-250.539c-23.834 0.384-43.008 19.796-43.008 43.685 0 0.002 0 0.004 0 0.006v0 240.981c0 0.002 0 0.003 0 0.005 0 23.89 19.174 43.301 42.972 43.685h250.575c24.13 0 43.691-19.561 43.691-43.691v0-240.981c0-24.13-19.561-43.691-43.691-43.691v0zM357.035 518.315h161.792v154.965h-163.84z" />
<glyph unicode="&#xe906;" glyph-name="event" data-tags="icon-event" d="M946.176 925.867h-868.352c-0.205 0.004-0.446 0.006-0.688 0.006-23.753 0-43.008-19.255-43.008-43.008 0-0.242 0.002-0.484 0.006-0.725v0.036-566.613c-0.004-0.205-0.006-0.446-0.006-0.688 0-23.753 19.255-43.008 43.008-43.008 0.242 0 0.484 0.002 0.725 0.006h53.212c28.883-46.92 79.964-77.73 138.24-77.73s109.356 30.811 137.839 77.031l0.401 0.699h206.848c28.883-46.92 79.964-77.73 138.24-77.73s109.356 30.811 137.839 77.031l0.401 0.699h53.248c0.205-0.004 0.446-0.006 0.688-0.006 23.753 0 43.008 19.255 43.008 43.008 0 0.242-0.002 0.484-0.006 0.725v-0.036 566.613c0.004 0.209 0.006 0.457 0.006 0.704 0 23.275-18.488 42.231-41.579 42.985l-0.069 0.002zM903.168 839.168v-414.379c-26.175 57.24-82.94 96.294-148.827 96.294-90.109 0-163.157-73.048-163.157-163.157 0-0.493 0.002-0.986 0.007-1.478l-0.001 0.075h-158.379c0.004 0.417 0.006 0.91 0.006 1.403 0 90.109-73.048 163.157-163.157 163.157-65.887 0-122.652-39.054-148.41-95.276l-0.418-1.017v414.379zM273.067 277.333c-1.199-0.067-2.603-0.105-4.015-0.105-42.227 0-76.459 34.232-76.459 76.459s34.232 76.459 76.459 76.459c40.989 0 74.445-32.255 76.371-72.767l0.007-0.173c0.052-1.050 0.081-2.281 0.081-3.519 0-40.815-31.98-74.16-72.25-76.345l-0.194-0.008zM757.76 277.333c-42.227 0-76.459 34.232-76.459 76.459s34.232 76.459 76.459 76.459c42.227 0 76.459-34.232 76.459-76.459v0c0-0.023 0-0.049 0-0.076 0-42.227-34.232-76.459-76.459-76.459-1.201 0-2.395 0.028-3.582 0.082l0.168-0.006zM365.227 209.067c-7.803-7.889-12.624-18.741-12.624-30.72s4.821-22.831 12.628-30.724l-0.004 0.004c24.366-24.161 41.272-55.811 46.978-91.209l0.126-0.951h-287.403c6.166 36.265 23.002 67.831 47.117 92.173l-0.013-0.013c11.723 7.957 19.325 21.224 19.325 36.265 0 24.13-19.561 43.691-43.691 43.691-14.697 0-27.698-7.256-35.618-18.382l-0.091-0.134c-48.148-49.192-77.858-116.598-77.858-190.942 0-1.512 0.012-3.021 0.037-4.527l-0.003 0.227c-0.004-0.205-0.006-0.446-0.006-0.688 0-23.753 19.255-43.008 43.008-43.008 0.242 0 0.484 0.002 0.725 0.006h382.94c0.205-0.004 0.446-0.006 0.688-0.006 23.753 0 43.008 19.255 43.008 43.008 0 0.242-0.002 0.484-0.006 0.725v-0.036c0.022 1.279 0.034 2.788 0.034 4.3 0 74.344-29.71 141.75-77.905 190.99l0.047-0.048c-7.889 7.803-18.741 12.624-30.72 12.624s-22.831-4.821-30.724-12.628l0.004 0.004zM850.603 209.067c-7.803-7.889-12.624-18.741-12.624-30.72s4.821-22.831 12.628-30.724l-0.004 0.004c24.102-24.329 40.938-55.895 46.961-91.15l0.143-1.010h-287.403c5.832 36.349 22.738 67.999 47.092 92.149l0.012 0.011c4.993 7.007 7.982 15.742 7.982 25.175 0 24.13-19.561 43.691-43.691 43.691-9.088 0-17.528-2.775-24.519-7.523l0.153 0.098c-48.181-49.199-77.913-116.626-77.913-190.999 0-2.453 0.032-4.897 0.097-7.334l-0.008 0.36c-0.004-0.205-0.006-0.446-0.006-0.688 0-23.753 19.255-43.008 43.008-43.008 0.242 0 0.484 0.002 0.725 0.006h382.94c0.205-0.004 0.446-0.006 0.688-0.006 23.753 0 43.008 19.255 43.008 43.008 0 0.242-0.002 0.484-0.006 0.725v-0.036c0.057 2.077 0.089 4.522 0.089 6.975 0 74.372-29.732 141.8-77.959 191.046l0.046-0.047c-7.889 7.803-18.741 12.624-30.72 12.624s-22.831-4.821-30.724-12.628l0.004 0.004z" />
<glyph unicode="&#xe907;" glyph-name="bookings" data-tags="icon-bookings" d="M905.899 865.792h-86.699v16.384c0.004 0.218 0.006 0.474 0.006 0.732 0 23.753-19.255 43.008-43.008 43.008-0.723 0-1.441-0.018-2.155-0.053l0.1 0.004h-131.072c-0.002 0-0.004 0-0.005 0-23.753 0-43.008-19.255-43.008-43.008 0-0.24 0.002-0.48 0.006-0.719v0.036-16.384h-176.128v16.384c0.003 0.203 0.005 0.443 0.005 0.683 0 23.753-19.255 43.008-43.008 43.008-0.002 0-0.004 0-0.006 0h-131.072c-0.613 0.031-1.332 0.049-2.054 0.049-23.753 0-43.008-19.255-43.008-43.008 0-0.257 0.002-0.514 0.007-0.77l-0.001 0.039v-16.384h-86.699c-0.002 0-0.004 0-0.005 0-23.513 0-42.618-18.868-43.002-42.289v-809.679c-0.003-0.203-0.005-0.443-0.005-0.683 0-23.753 19.255-43.008 43.008-43.008 0.002 0 0.004 0 0.006 0h787.797c0.002 0 0.004 0 0.005 0 23.753 0 43.008 19.255 43.008 43.008 0 0.24-0.002 0.48-0.006 0.719v-0.036 809.643c-0.384 23.457-19.49 42.325-43.003 42.325-0.002 0-0.004 0-0.006 0v0zM686.763 839.168h44.373v-68.267h-44.373zM292.864 839.168h44.373v-68.267h-44.373zM204.8 779.093v-48.469c-0.004-0.218-0.006-0.474-0.006-0.732 0-23.753 19.255-43.008 43.008-43.008 0.723 0 1.441 0.018 2.155 0.053l-0.1-0.004h131.072c23.753 0 43.008 19.255 43.008 43.008v0 49.152h176.128v-48.469c-0.003-0.203-0.005-0.443-0.005-0.683 0-23.753 19.255-43.008 43.008-43.008 0.002 0 0.004 0 0.006 0h131.072c0.613-0.031 1.332-0.049 2.054-0.049 23.753 0 43.008 19.255 43.008 43.008 0 0.257-0.002 0.514-0.007 0.77l0.001-0.039v48.469h44.373v-156.331h-701.781v156.331zM161.792 56.832v477.867h700.416v-477.867zM577.536 427.52l-92.843-108.544-40.96 39.595c-7.37 5.865-16.814 9.41-27.087 9.41-24.13 0-43.691-19.561-43.691-43.691 0-10.613 3.784-20.343 10.078-27.913l-0.058 0.071 73.728-72.363c7.751-7.601 18.38-12.292 30.104-12.292 0.217 0 0.433 0.002 0.649 0.005h-0.033c12.358 0.403 23.303 6.131 30.666 14.952l0.054 0.066 125.611 144.725c6.144 7.552 9.865 17.289 9.865 27.895 0 13.372-5.915 25.363-15.272 33.499l-0.054 0.046c-7.386 6.441-17.11 10.368-27.752 10.368-13.309 0-25.184-6.143-32.943-15.749l-0.063-0.080z" />
<glyph unicode="&#xe908;" glyph-name="survey" data-tags="icon-survey" d="M797.355-29.867c-0.111-0.001-0.242-0.002-0.373-0.002-8.183 0-15.833 2.286-22.345 6.253l0.19-0.107-324.267 193.877h-273.067c-1.223-0.031-2.663-0.049-4.108-0.049-95.062 0-172.257 76.497-173.385 171.291l-0.001 0.107v413.696c1.53 94.588 78.567 170.679 173.376 170.679 0.728 0 1.454-0.004 2.18-0.013l-0.11 0.001h673.109c0.615 0.008 1.342 0.012 2.069 0.012 94.809 0 171.846-76.091 173.374-170.535l0.002-0.144v-413.696c-1.15-94.885-78.336-171.362-173.385-171.362-0.724 0-1.448 0.004-2.17 0.013l0.11-0.001h-7.509v-157.013c-0.545-16.019-9.373-29.861-22.315-37.432l-0.213-0.115c-6.126-3.334-13.397-5.342-21.126-5.461h-0.037zM175.445 839.168c-0.617 0.016-1.343 0.025-2.072 0.025-46.794 0-84.861-37.366-85.99-83.888l-0.002-0.105v-413.696c0.755-46.925 38.972-84.675 86.006-84.675 0.724 0 1.446 0.009 2.165 0.027l-0.107-0.002h287.403c8.307-0.035 16.074-2.313 22.737-6.258l-0.209 0.114 265.557-161.109v124.245c0.384 23.834 19.796 43.008 43.685 43.008 0.002 0 0.004 0 0.006 0h51.2c0.613-0.016 1.335-0.025 2.058-0.025 47.034 0 85.251 37.75 86.005 84.604l0.001 0.071v413.696c-0.755 46.925-38.972 84.675-86.006 84.675-0.724 0-1.446-0.009-2.165-0.027l0.107 0.002zM768.683 601.6h-513.365c-24.13 0-43.691 19.561-43.691 43.691v0c1.124 23.232 20.233 41.643 43.643 41.643 0.017 0 0.034 0 0.051 0h513.363c0.002 0 0.003 0 0.005 0 23.89 0 43.301-19.174 43.685-42.972v-0.036c-0.759-23.535-20.020-42.325-43.669-42.325-0.008 0-0.015 0-0.023 0h0.001zM513.365 413.867h-258.048c-24.13 0-43.691 19.561-43.691 43.691v0c0.384 23.834 19.796 43.008 43.685 43.008 0.002 0 0.004 0 0.006 0h258.048c0.203 0.003 0.443 0.005 0.683 0.005 23.753 0 43.008-19.255 43.008-43.008 0-0.002 0-0.004 0-0.006v0c0-24.13-19.561-43.691-43.691-43.691v0z" />
<glyph unicode="&#xe909;" glyph-name="coupon-app" data-tags="icon-coupon-app" d="M403.456 656.896h217.088c1.637-0.217 3.529-0.341 5.451-0.341 24.13 0 43.691 19.561 43.691 43.691s-19.561 43.691-43.691 43.691c-1.921 0-3.814-0.124-5.67-0.365l0.219 0.023h-217.088c-1.637 0.217-3.529 0.341-5.451 0.341-24.13 0-43.691-19.561-43.691-43.691s19.561-43.691 43.691-43.691c1.921 0 3.814 0.124 5.67 0.365l-0.219-0.023zM403.456 500.565h217.088c24.13 0 43.691 19.561 43.691 43.691s-19.561 43.691-43.691 43.691v0h-217.088c-24.13 0-43.691-19.561-43.691-43.691s19.561-43.691 43.691-43.691v0zM403.456 345.6h217.088c1.637-0.217 3.529-0.341 5.451-0.341 24.13 0 43.691 19.561 43.691 43.691s-19.561 43.691-43.691 43.691c-1.921 0-3.814-0.124-5.67-0.365l0.219 0.023h-217.088c-1.637 0.217-3.529 0.341-5.451 0.341-24.13 0-43.691-19.561-43.691-43.691s19.561-43.691 43.691-43.691c1.921 0 3.814 0.124 5.67 0.365l-0.219-0.023zM946.176 925.867h-868.352c-1.637 0.217-3.529 0.341-5.451 0.341-24.13 0-43.691-19.561-43.691-43.691s19.561-43.691 43.691-43.691c1.921 0 3.814 0.124 5.67 0.365l-0.219-0.023h119.467v-698.368c0.152-10.024 3.457-19.247 8.965-26.754l-0.091 0.13 96.256-124.928c8.074-10.024 20.347-16.384 34.106-16.384 0.010 0 0.019 0 0.029 0h-0.001c0.072 0 0.156-0.001 0.241-0.001 14.343 0 26.992 7.251 34.481 18.287l0.093 0.146 51.883 73.728 54.613-75.776c7.729-11.194 20.488-18.436 34.939-18.436 0.197 0 0.393 0.001 0.59 0.004h-0.030c13.564 0.946 25.318 7.95 32.677 18.297l0.091 0.135 51.883 73.728 52.565-73.728c7.421-11.15 19.927-18.405 34.129-18.432h0.004c1.295-0.158 2.795-0.249 4.316-0.249 12.937 0 24.347 6.543 31.099 16.501l0.084 0.132 98.987 124.928c5.417 7.377 8.723 16.6 8.874 26.588v700.452h119.467c1.637-0.217 3.529-0.341 5.451-0.341 24.13 0 43.691 19.561 43.691 43.691s-19.561 43.691-43.691 43.691c-1.921 0-3.814-0.124-5.67-0.365l0.219 0.023zM741.376 153.088l-51.2-68.267-55.296 78.507c-7.986 11.171-20.895 18.38-35.49 18.432h-0.008c-0.061 0-0.132 0-0.204 0-14.555 0-27.422-7.231-35.204-18.296l-0.091-0.137-51.883-73.728-52.565 73.728c-7.873 11.202-20.74 18.432-35.295 18.432-0.072 0-0.143 0-0.215-0.001h0.011c-14.604-0.052-27.512-7.261-35.409-18.3l-0.090-0.132-53.248-76.459-51.2 68.267v682.667h456.021z" />
<glyph unicode="&#xe90a;" glyph-name="tickets-app" data-tags="icon-tickets-app" d="M694.955 925.867h-365.909c-69.097-2.274-124.248-58.835-124.248-128.276 0-0.263 0.001-0.526 0.002-0.788v0.040-697.685c-0.001-0.222-0.002-0.485-0.002-0.748 0-69.441 55.15-126.002 124.040-128.271l0.208-0.005h365.909c70.588 0.387 127.66 57.698 127.66 128.34 0 0.241-0.001 0.481-0.002 0.722v-0.037 697.685c0.001 0.203 0.002 0.444 0.002 0.684 0 70.642-57.073 127.953-127.624 128.339h-0.037zM329.045 839.168h365.909c22.706-0.381 40.966-18.877 40.966-41.637 0-0.242-0.002-0.483-0.006-0.724v0.036-576.853h-447.829v576.853c-0.004 0.205-0.006 0.446-0.006 0.688 0 22.761 18.26 41.256 40.93 41.637h0.036zM694.955 56.832h-365.909c-22.706 0.381-40.966 18.877-40.966 41.637 0 0.242 0.002 0.483 0.006 0.724v-0.036 34.133h447.829v-34.133c0.004-0.205 0.006-0.446 0.006-0.688 0-22.761-18.26-41.256-40.93-41.637h-0.036zM369.323 612.523c0.24-0.005 0.523-0.008 0.807-0.008 11.791 0 22.418 4.982 29.892 12.956l0.021 0.022 100.352 101.717c7.932 7.702 12.854 18.465 12.854 30.379s-4.922 22.677-12.843 30.369l-0.010 0.010c-7.812 7.969-18.689 12.909-30.72 12.909s-22.908-4.94-30.713-12.902l-0.007-0.007-97.621-101.035c-7.969-7.812-12.909-18.689-12.909-30.72s4.94-22.908 12.902-30.713l0.007-0.007c7.268-7.239 16.995-12.013 27.82-12.959l0.17-0.012zM392.533 462.336c7.648-7.595 18.186-12.289 29.82-12.289 0.076 0 0.153 0 0.229 0.001h-0.012c0.184-0.003 0.401-0.004 0.618-0.004 12.063 0 22.967 4.967 30.777 12.967l0.008 0.009 208.896 212.309c9.943 8.074 16.245 20.298 16.245 33.994 0 24.13-19.561 43.691-43.691 43.691-13.696 0-25.92-6.302-33.93-16.164l-0.063-0.081-209.579-212.992c-7.768-7.78-12.571-18.522-12.571-30.386 0-12.2 5.079-23.213 13.239-31.040l0.015-0.014z" />
<glyph unicode="&#xe90b;" glyph-name="business" data-tags="icon-business" d="M933.205 925.867h-842.411c-24.13 0-43.691-19.561-43.691-43.691v0-868.352c0-24.13 19.561-43.691 43.691-43.691v0h842.411c24.13 0 43.691 19.561 43.691 43.691v0 868.352c0 24.13-19.561 43.691-43.691 43.691v0zM887.467 839.168v-179.541h-750.933v179.541zM682.667 350.379v-293.547h-126.976v293.547zM471.723 56.832h-126.976v293.547h123.563zM769.365 56.832v336.555c0.004 0.205 0.006 0.446 0.006 0.688 0 23.753-19.255 43.008-43.008 43.008-0.242 0-0.484-0.002-0.725-0.006h-424.583c-0.002 0-0.004 0-0.005 0-23.753 0-43.008-19.255-43.008-43.008 0-0.24 0.002-0.48 0.006-0.719v0.036-336.555h-121.515v516.096h750.933v-516.096z" />
<glyph unicode="&#xe90c;" glyph-name="calendar" data-tags="icon-calendar" d="M912.725 865.792h-90.112v16.384c0.003 0.203 0.005 0.443 0.005 0.683 0 23.753-19.255 43.008-43.008 43.008-0.002 0-0.004 0-0.006 0h-136.533c-24.13 0-43.691-19.561-43.691-43.691v0-16.384h-177.493v16.384c0 24.13-19.561 43.691-43.691 43.691v0h-136.533c-20.97-3.104-36.879-20.979-36.879-42.569 0-0.394 0.005-0.788 0.016-1.179l-0.001 0.058v-16.384h-93.525c-0.002 0-0.004 0-0.005 0-23.513 0-42.618-18.868-43.002-42.289v-809.679c-0.004-0.205-0.006-0.446-0.006-0.688 0-23.753 19.255-43.008 43.008-43.008 0.242 0 0.484 0.002 0.725 0.006h800.732c0.205-0.004 0.446-0.006 0.688-0.006 23.753 0 43.008 19.255 43.008 43.008 0 0.242-0.002 0.484-0.006 0.725v-0.036 809.643c-0.381 23.46-19.488 42.331-43.003 42.331-0.242 0-0.483-0.002-0.724-0.006h0.036zM688.811 839.168h47.104v-68.267h-47.104zM288.085 839.168h47.104v-68.267h-47.104zM204.8 779.093v-48.469c-0.005-0.243-0.008-0.53-0.008-0.818 0-22.554 17.361-41.053 39.448-42.863l0.154-0.010h136.533c0.002 0 0.003 0 0.005 0 23.89 0 43.301 19.174 43.685 42.972v49.188h177.493v-48.469c0-24.13 19.561-43.691 43.691-43.691v0h136.533c23.753 0 43.008 19.255 43.008 43.008v0 49.152h47.104v-156.331h-718.165v156.331zM154.283 56.832v477.867h715.435v-477.867zM341.333 256.171h-87.381c-24.13 0-43.691-19.561-43.691-43.691v0c0.384-23.834 19.796-43.008 43.685-43.008 0.002 0 0.004 0 0.006 0h87.381c0.651-0.035 1.413-0.055 2.179-0.055 22.571 0 41.081 17.387 42.867 39.498l0.010 0.152c0.086 1.030 0.136 2.229 0.136 3.439 0 24.13-19.561 43.691-43.691 43.691-0.528 0-1.053-0.009-1.577-0.028l0.076 0.002zM565.931 420.693h-88.064c-24.13 0-43.691-19.561-43.691-43.691s19.561-43.691 43.691-43.691h88.064c24.13 0 43.691 19.561 43.691 43.691s-19.561 43.691-43.691 43.691v0zM788.48 420.693h-88.747c-24.13 0-43.691-19.561-43.691-43.691s19.561-43.691 43.691-43.691h88.747c24.13 0 43.691 19.561 43.691 43.691s-19.561 43.691-43.691 43.691v0zM341.333 420.693h-87.381c-24.13 0-43.691-19.561-43.691-43.691s19.561-43.691 43.691-43.691h87.381c24.13 0 43.691 19.561 43.691 43.691s-19.561 43.691-43.691 43.691v0zM565.931 256.171h-88.064c-23.834-0.384-43.008-19.796-43.008-43.685 0-0.002 0-0.004 0-0.006v0c0-23.753 19.255-43.008 43.008-43.008h88.064c0.057 0 0.125 0 0.192 0 22.688 0 41.336 17.293 43.484 39.417l0.014 0.179c0.085 1.022 0.134 2.212 0.134 3.414 0 24.13-19.561 43.691-43.691 43.691-0.047 0-0.094 0-0.141 0h0.007zM788.48 256.171h-88.747c-24.13 0-43.691-19.561-43.691-43.691v0c0-0.002 0-0.004 0-0.005 0-23.753 19.255-43.008 43.008-43.008 0.24 0 0.48 0.002 0.719 0.006h88.711c0.002 0 0.003 0 0.005 0 23.89 0 43.301 19.174 43.685 42.972v0.036c0 24.13-19.561 43.691-43.691 43.691v0z" />
<glyph unicode="&#xe90d;" glyph-name="documents" data-tags="icon-documents" d="M912.725 925.867h-801.451c-0.002 0-0.004 0-0.005 0-23.753 0-43.008-19.255-43.008-43.008 0-0.24 0.002-0.48 0.006-0.719v0.036-868.352c-0.004-0.205-0.006-0.446-0.006-0.688 0-23.753 19.255-43.008 43.008-43.008 0.242 0 0.484 0.002 0.725 0.006h800.732c0.205-0.004 0.446-0.006 0.688-0.006 23.753 0 43.008 19.255 43.008 43.008 0 0.242-0.002 0.484-0.006 0.725v-0.036 868.352c0.004 0.205 0.006 0.446 0.006 0.688 0 23.753-19.255 43.008-43.008 43.008-0.242 0-0.484-0.002-0.725-0.006h0.036zM869.717 56.832h-715.435v782.336h715.435zM277.845 648.704h468.309c24.13 0 43.691 19.561 43.691 43.691s-19.561 43.691-43.691 43.691v0h-468.309c-24.13 0-43.691-19.561-43.691-43.691s19.561-43.691 43.691-43.691v0zM277.845 486.229h468.309c23.753 0 43.008 19.255 43.008 43.008v0c0 0.002 0 0.003 0 0.005 0 23.89-19.174 43.301-42.972 43.685h-468.345c-23.834-0.384-43.008-19.796-43.008-43.685 0-0.002 0-0.004 0-0.006v0c0-23.753 19.255-43.008 43.008-43.008v0zM277.845 323.072h468.309c23.834 0.384 43.008 19.796 43.008 43.685 0 0.002 0 0.004 0 0.006v0c0 23.753-19.255 43.008-43.008 43.008h-468.309c-23.753 0-43.008-19.255-43.008-43.008v0c0-0.002 0-0.003 0-0.005 0-23.89 19.174-43.301 42.972-43.685h0.036zM273.067 168.107h236.203c24.13 0 43.691 19.561 43.691 43.691s-19.561 43.691-43.691 43.691h-236.203c-24.13 0-43.691-19.561-43.691-43.691s19.561-43.691 43.691-43.691v0zM746.155 255.488h-96.256c-24.13 0-43.691-19.561-43.691-43.691s19.561-43.691 43.691-43.691h96.256c24.13 0 43.691 19.561 43.691 43.691s-19.561 43.691-43.691 43.691v0z" />
<glyph unicode="&#xe90e;" glyph-name="ticket" data-tags="icon-ticket" d="M920.235 618.667h-920.235v-214.357c63.538-8.858 112.181-61.969 114.001-126.792l0.004-0.184c0-102.4-114.005-126.976-114.005-126.976v-214.357h898.389c70.92 5.434 126.406 64.316 126.406 136.157 0 5.183-0.289 10.298-0.851 15.331l0.056-0.619v409.6c0.126 2.025 0.198 4.392 0.198 6.775 0 59.836-45.284 109.095-103.45 115.377l-0.513 0.045zM88.747 90.965c68.898 35.080 115.412 105.217 116.053 186.281l0.001 0.087c0.032 1.34 0.049 2.919 0.049 4.502 0 80.855-46.855 150.766-114.894 184.062l-1.209 0.534v63.488h662.187v-505.173h-662.187zM935.253 86.869c0-38.229-21.845-62.123-36.864-62.123h-57.344v505.173h78.507c9.74-7.159 15.991-18.572 15.991-31.445 0-1.67-0.105-3.315-0.309-4.929l0.020 0.192zM638.976 413.867h-287.403c-24.507 0-44.373-19.867-44.373-44.373s19.867-44.373 44.373-44.373v0h287.403c24.507 0 44.373 19.867 44.373 44.373s-19.867 44.373-44.373 44.373v0zM546.133 231.595h-194.56c-24.507 0-44.373-19.867-44.373-44.373s19.867-44.373 44.373-44.373v0h194.56c24.507 0 44.373 19.867 44.373 44.373s-19.867 44.373-44.373 44.373v0z" />
<glyph unicode="&#xe90f;" glyph-name="doctor" data-tags="icon-doc" d="M77.824 367.445h156.331c1.637-0.217 3.529-0.341 5.451-0.341 24.13 0 43.691 19.561 43.691 43.691s-19.561 43.691-43.691 43.691c-1.921 0-3.814-0.124-5.67-0.365l0.219 0.023h-156.331c-1.637 0.217-3.529 0.341-5.451 0.341-24.13 0-43.691-19.561-43.691-43.691s19.561-43.691 43.691-43.691c1.921 0 3.814 0.124 5.67 0.365l-0.219-0.023zM372.736 305.323h-294.912c-24.13 0-43.691-19.561-43.691-43.691v0c0-0.002 0-0.004 0-0.005 0-23.753 19.255-43.008 43.008-43.008 0.24 0 0.48 0.002 0.719 0.006h294.876c23.753 0 43.008 19.255 43.008 43.008v0c0 0.002 0 0.003 0 0.005 0 23.89-19.174 43.301-42.972 43.685h-0.036zM989.867 385.877c-4.895 63.444-57.58 113.070-121.856 113.070s-116.961-49.626-121.83-112.653l-0.026-0.418c1.394-49.869 33.317-91.936 77.683-108.279l0.824-0.265v-68.267c0-141.312-28.672-155.648-99.669-155.648s-100.352 19.115-100.352 155.648v286.72c127.75 17.835 225.39 125.127 228.006 255.732l0.004 0.268v87.381c-0.064 12.246-5.004 23.326-12.976 31.408l0.005-0.005-45.739 43.008c-7.812 7.969-18.689 12.909-30.72 12.909s-22.908-4.94-30.713-12.902l-0.007-0.007c-7.803-7.889-12.624-18.741-12.624-30.72s4.821-22.831 12.628-30.724l-0.004 0.004 32.085-30.72v-68.267c-2.64-97.102-81.984-174.811-179.479-174.811-1.462 0-2.92 0.017-4.374 0.052l0.216-0.004c-1.454-0.042-3.165-0.066-4.882-0.066-97.021 0-176.067 76.955-179.43 173.156l-0.009 0.307v68.267l32.085 30.72c7.803 7.889 12.624 18.741 12.624 30.72s-4.821 22.831-12.628 30.724l0.004-0.004c-7.812 7.969-18.689 12.909-30.72 12.909s-22.908-4.94-30.713-12.902l-0.007-0.007-45.739-43.008c-8.159-8.027-13.317-19.081-13.652-31.34l-0.001-0.062v-86.016c3.071-131.367 101.574-238.817 228.704-255.852l1.355-0.148v-286.72c0-117.419 14.336-242.347 187.051-242.347s186.368 124.928 186.368 242.347v68.267c45.19 16.608 77.113 58.675 78.503 108.379l0.004 0.165zM868.352 413.867c0.426 0.019 0.925 0.030 1.426 0.030 17.764 0 32.295-13.848 33.385-31.337l0.005-0.096c-3.312-16.056-17.333-27.955-34.133-27.955s-30.821 11.899-34.094 27.73l-0.039 0.225c1.111 17.572 15.634 31.403 33.388 31.403 0.022 0 0.044 0 0.066 0h-0.003z" />
<glyph unicode="&#xe910;" glyph-name="sponsorships" data-tags="icon-sponsorships" d="M946.176 370.859h-868.352c-0.203-0.003-0.443-0.005-0.683-0.005-23.753 0-43.008 19.255-43.008 43.008 0 0.002 0 0.004 0 0.006v0 468.309c0 24.13 19.561 43.691 43.691 43.691v0h868.352c24.13 0 43.691-19.561 43.691-43.691v0-468.309c0-0.002 0-0.004 0-0.005 0-23.753-19.255-43.008-43.008-43.008-0.24 0-0.48 0.002-0.719 0.006h0.036zM120.832 457.557h782.336v381.611h-782.336zM311.296-29.867h-233.472c-24.13 0-43.691 19.561-43.691 43.691v0 234.155c0 0.002 0 0.004 0 0.005 0 23.753 19.255 43.008 43.008 43.008 0.24 0 0.48-0.002 0.719-0.006h233.436c0.002 0 0.003 0 0.005 0 23.89 0 43.301-19.174 43.685-42.972v-234.191c0-24.13-19.561-43.691-43.691-43.691v0zM120.832 56.832h147.456v147.456h-147.456zM946.176-29.867h-468.309c-24.13 0-43.691 19.561-43.691 43.691v0 234.155c0.384 23.834 19.796 43.008 43.685 43.008 0.002 0 0.004 0 0.006 0h467.626c0.203 0.003 0.443 0.005 0.683 0.005 23.753 0 43.008-19.255 43.008-43.008 0-0.002 0-0.004 0-0.006v0-234.155c0-0.002 0-0.003 0-0.005 0-23.89-19.174-43.301-42.972-43.685h-0.036zM522.24 56.832h380.928v147.456h-380.928zM719.531 679.424h-477.867c-1.637-0.217-3.529-0.341-5.451-0.341-24.13 0-43.691 19.561-43.691 43.691s19.561 43.691 43.691 43.691c1.921 0 3.814-0.124 5.67-0.365l-0.219 0.023h477.867c21.67-2.803 38.24-21.141 38.24-43.349s-16.57-40.546-38.021-43.326l-0.219-0.023zM585.728 529.92h-347.477c-24.507 0-44.373 19.867-44.373 44.373s19.867 44.373 44.373 44.373v0h347.477c24.13 0 43.691-19.561 43.691-43.691s-19.561-43.691-43.691-43.691v0z" />
<glyph unicode="&#xe911;" glyph-name="user-group" data-tags="icon-user-group" d="M876.544 460.288c-8.029 8.886-19.595 14.446-32.46 14.446-24.13 0-43.691-19.561-43.691-43.691 0-14.229 6.802-26.869 17.332-34.847l0.109-0.079c46.112-44.479 76.587-104.899 82.529-172.361l0.074-1.036h-217.771c-18.495 50.898-46.932 94.272-83.213 129.636l-0.073 0.070c-7.889 7.803-18.741 12.624-30.72 12.624s-22.831-4.821-30.724-12.628l0.004 0.004c-7.969-7.812-12.909-18.689-12.909-30.72s4.94-22.908 12.902-30.713l0.007-0.007c45.906-44.869 76.308-105.428 82.522-172.991l0.081-1.089h-496.981c6.528 67.706 36.342 127.435 81.222 172.017l0.015 0.015c8.549 7.922 13.882 19.21 13.882 31.744 0 23.879-19.358 43.236-43.236 43.236-11.345 0-21.67-4.37-29.383-11.518l0.028 0.026c-69.249-68.155-112.157-162.898-112.157-267.662 0-4.301 0.072-8.586 0.216-12.852l-0.017 0.621c-0.004-0.205-0.006-0.446-0.006-0.688 0-23.753 19.255-43.008 43.008-43.008 0.242 0 0.484 0.002 0.725 0.006h591.153c24.13 0 43.691 19.561 43.691 43.691v0c-0.316 22.655-2.538 44.571-6.513 65.87l0.369-2.382h239.616c24.13 0 43.691 19.561 43.691 43.691v0c0.098 3.206 0.153 6.976 0.153 10.76 0 105.684-43.427 201.226-113.411 269.753l-0.066 0.064zM373.419 314.88c0.945-0.014 2.059-0.022 3.176-0.022 86.977 0 162.579 48.7 201.026 120.319l0.597 1.218c22.295-8.213 48.040-13.177 74.881-13.65l0.212-0.003c0.819-0.011 1.787-0.017 2.756-0.017 123.601 0 224.024 99.24 225.935 222.386l0.002 0.18c-0.89 126.004-103.242 227.807-229.371 227.807-89.011 0-166.18-50.701-204.204-124.798l-0.602-1.291c-22.95 8.603-49.473 13.582-77.159 13.582-123.81 0-224.364-99.576-225.944-223.011l-0.002-0.149c1.913-123.326 102.336-222.566 225.937-222.566 0.969 0 1.937 0.006 2.903 0.018l-0.147-0.001zM650.581 781.141c1.425 0.053 3.098 0.084 4.779 0.084 75.405 0 136.533-61.128 136.533-136.533 0-0.029 0-0.059 0-0.088v0.005c0-0.028 0-0.060 0-0.093 0-75.405-61.128-136.533-136.533-136.533-20.017 0-39.028 4.308-56.156 12.046l0.86-0.348c0 6.144 0 11.605 0 17.749 0 0.037 0 0.081 0 0.125 0 65.954-28.956 125.145-74.85 165.553l-0.244 0.21c22.467 46.407 69.2 77.844 123.276 77.844 0.821 0 1.64-0.007 2.458-0.022l-0.123 0.002zM373.419 673.28c1.425 0.053 3.098 0.084 4.779 0.084 75.405 0 136.533-61.128 136.533-136.533 0-0.029 0-0.059 0-0.088v0.005c0-0.025 0-0.054 0-0.084 0-75.405-61.128-136.533-136.533-136.533-1.681 0-3.354 0.030-5.020 0.091l0.241-0.007c-1.425-0.053-3.098-0.084-4.779-0.084-75.405 0-136.533 61.128-136.533 136.533 0 0.029 0 0.059 0 0.088v-0.005c0 0.025 0 0.054 0 0.084 0 75.405 61.128 136.533 136.533 136.533 1.681 0 3.354-0.030 5.020-0.091l-0.241 0.007z" />
<glyph unicode="&#xe912;" glyph-name="contracts" data-tags="icon-contracts" d="M955.733 660.309c0.241 1.712 0.379 3.69 0.379 5.7 0 11.911-4.842 22.692-12.666 30.48l-0.002 0.002-223.232 217.088c-7.398 7.331-17.584 11.862-28.827 11.862-3.089 0-6.099-0.342-8.993-0.99l0.273 0.051v1.365h-409.6c-0.205 0.004-0.446 0.006-0.688 0.006-23.753 0-43.008-19.255-43.008-43.008 0-0.242 0.002-0.484 0.006-0.725v0.036-114.005h-118.101c-23.834-0.384-43.008-19.796-43.008-43.685 0-0.002 0-0.004 0-0.006v0-710.656c-0.004-0.205-0.006-0.446-0.006-0.688 0-23.753 19.255-43.008 43.008-43.008 0.242 0 0.484 0.002 0.725 0.006h638.94c0.205-0.004 0.446-0.006 0.688-0.006 23.753 0 43.008 19.255 43.008 43.008 0 0.242-0.002 0.484-0.006 0.725v-0.036 114.005h116.736c24.13 0 43.691 19.561 43.691 43.691v0 483.328s0.683 3.413 0.683 5.461zM722.261 790.016l96.939-91.477h-96.939zM709.291 56.832h-555.008v623.957h73.728v-509.269c0-24.13 19.561-43.691 43.691-43.691v0h437.589zM869.717 215.211h-555.008v623.957h320.853v-184.32c0.31-23.892 19.751-43.142 43.687-43.142 1.203 0 2.394 0.049 3.572 0.144l-0.155-0.010h190.464zM409.6 545.621c-1.637 0.217-3.529 0.341-5.451 0.341-24.13 0-43.691-19.561-43.691-43.691s19.561-43.691 43.691-43.691c1.921 0 3.814 0.124 5.67 0.365l-0.219-0.023h243.029c21.67 2.803 38.24 21.141 38.24 43.349s-16.57 40.546-38.021 43.326l-0.219 0.023zM652.629 403.627h-243.029c-1.637 0.217-3.529 0.341-5.451 0.341-24.13 0-43.691-19.561-43.691-43.691s19.561-43.691 43.691-43.691c1.921 0 3.814 0.124 5.67 0.365l-0.219-0.023h243.029c21.67 2.803 38.24 21.141 38.24 43.349s-16.57 40.546-38.021 43.326l-0.219 0.023z" />
<glyph unicode="&#xe913;" glyph-name="task" data-tags="icon-task" d="M196.608 706.731c1.019 0.054 2.213 0.085 3.413 0.085 37.703 0 68.267-30.564 68.267-68.267 0-0.030 0-0.060 0-0.090v0.005c0-0.025 0-0.055 0-0.085 0-37.703-30.564-68.267-68.267-68.267-1.201 0-2.394 0.031-3.579 0.092l0.166-0.007c-37.703 0-68.267 30.564-68.267 68.267v0c0 37.703 30.564 68.267 68.267 68.267v0zM196.608 798.208c-0.41 0.004-0.894 0.006-1.378 0.006-88.26 0-159.944-70.972-161.095-158.958l-0.001-0.109c2.284-87.201 73.517-157.020 161.057-157.020 0.498 0 0.996 0.002 1.493 0.007l-0.076-0.001c87.847 0 159.061 71.214 159.061 159.061s-71.214 159.061-159.061 159.061v0zM944.128 673.28h-454.656c-0.203-0.003-0.443-0.005-0.683-0.005-24.884 0-45.056 20.172-45.056 45.056 0 0.002 0 0.004 0 0.005v0c0 25.261 20.478 45.739 45.739 45.739v0h454.656c25.261 0 45.739-20.478 45.739-45.739v0c0-0.002 0-0.003 0-0.005 0-24.884-20.172-45.056-45.056-45.056-0.24 0-0.48 0.002-0.719 0.006h0.036zM830.805 513.536h-341.333c-25.261 0-45.739 20.478-45.739 45.739s20.478 45.739 45.739 45.739h341.333c25.261 0 45.739-20.478 45.739-45.739s-20.478-45.739-45.739-45.739v0zM196.608 325.12c37.703 0 68.267-30.564 68.267-68.267s-30.564-68.267-68.267-68.267v0c-37.703 0-68.267 30.564-68.267 68.267s30.564 68.267 68.267 68.267v0zM196.608 413.867c-87.847 0-159.061-71.214-159.061-159.061s71.214-159.061 159.061-159.061v0c87.847 0 159.061 71.214 159.061 159.061s-71.214 159.061-159.061 159.061v0zM944.128 290.987h-454.656c-25.261 0-45.739 20.478-45.739 45.739s20.478 45.739 45.739 45.739h454.656c25.261 0 45.739-20.478 45.739-45.739s-20.478-45.739-45.739-45.739v0zM830.805 131.925h-341.333c-25.261 0-45.739 20.478-45.739 45.739v0c0 0.002 0 0.003 0 0.005 0 24.884 20.172 45.056 45.056 45.056 0.24 0 0.48-0.002 0.719-0.006h341.297c24.884 0 45.056-20.172 45.056-45.056v0c0-0.002 0-0.003 0-0.005 0-25.021-20.091-45.349-45.020-45.733h-0.036z" />
<glyph unicode="&#xe914;" glyph-name="wiki" data-tags="icon-wiki" d="M657.408 144.896h-290.816c-0.203-0.004-0.443-0.006-0.683-0.006-22.999 0-41.643 18.644-41.643 41.643 0 0.002 0 0.004 0 0.006v0 136.533c-94.938 60.109-157.18 164.383-157.696 283.23v0.077c2.68 186.457 154.459 336.58 341.3 336.58 1.452 0 2.901-0.009 4.349-0.027l-0.22 0.002c1.228 0.016 2.677 0.025 4.129 0.025 186.842 0 338.621-150.122 341.297-336.327l0.003-0.252c0-0.055 0-0.12 0-0.186 0-118.803-62.443-223.021-156.299-281.625l-1.397-0.813v-136.533c0.004-0.205 0.006-0.446 0.006-0.688 0-22.999-18.644-41.643-41.643-41.643-0.242 0-0.484 0.002-0.725 0.006h0.036zM409.6 228.864h204.8v109.227c0.070 9.164 2.864 17.661 7.612 24.738l-0.102-0.162 10.923 15.701c3.66 4.781 7.944 8.848 12.782 12.166l0.188 0.122c75.666 43.482 125.895 123.692 126.293 215.666v0.057c-2.675 140.075-116.857 252.602-257.321 252.602-0.976 0-1.95-0.005-2.923-0.016l0.149 0.001c-1.232 0.021-2.684 0.033-4.14 0.033-140.471 0-254.657-112.537-257.318-252.371l-0.004-0.249c1.083-95.916 55.606-178.849 135.148-220.523l1.385-0.661c13.533-7.244 22.583-21.285 22.583-37.439 0-0.758-0.020-1.512-0.059-2.26l0.004 0.105v-117.419zM657.408-46.933h-290.816c-23.376 0-42.325 18.95-42.325 42.325v0c0 0.002 0 0.004 0 0.006 0 22.999 18.644 41.643 41.643 41.643 0.24 0 0.48-0.002 0.719-0.006h290.78c0.203 0.004 0.443 0.006 0.683 0.006 22.999 0 41.643-18.644 41.643-41.643 0-0.002 0-0.004 0-0.006v0c0-23.376-18.95-42.325-42.325-42.325v0zM623.957 530.603c-23.376 0-42.325 18.95-42.325 42.325v0c-1.521 59.896-50.437 107.87-110.559 107.87-0.492 0-0.983-0.003-1.473-0.010l0.075 0.001c-0.203-0.004-0.443-0.006-0.683-0.006-22.999 0-41.643 18.644-41.643 41.643 0 0.002 0 0.004 0 0.006v0c0 23.376 18.95 42.325 42.325 42.325v0c0.612 0.007 1.335 0.011 2.059 0.011 106.359 0 192.715-85.645 193.866-191.731l0.001-0.109c0.004-0.203 0.006-0.443 0.006-0.683 0-22.999-18.644-41.643-41.643-41.643-0.002 0-0.004 0-0.006 0v0z" />
<glyph unicode="&#xe915;" glyph-name="project" data-tags="icon-project" d="M944.811 665.088h-449.877c-24.884 0-45.056 20.172-45.056 45.056s20.172 45.056 45.056 45.056v0h449.877c24.884 0 45.056-20.172 45.056-45.056s-20.172-45.056-45.056-45.056v0zM832.171 507.392h-337.237c-22.747 2.875-40.161 22.102-40.161 45.397s17.415 42.522 39.935 45.374l0.226 0.023h337.237c22.747-2.875 40.161-22.102 40.161-45.397s-17.415-42.522-39.935-45.374l-0.226-0.023zM204.8 321.024c37.703 0 68.267-30.564 68.267-68.267s-30.564-68.267-68.267-68.267v0c-37.703 0-68.267 30.564-68.267 68.267s30.564 68.267 68.267 68.267v0zM204.8 413.867c-87.093 0-157.696-70.603-157.696-157.696s70.603-157.696 157.696-157.696v0c87.093 0 157.696 70.603 157.696 157.696s-70.603 157.696-157.696 157.696v0zM944.811 286.891h-449.877c-24.884 0-45.056 20.172-45.056 45.056s20.172 45.056 45.056 45.056v0h449.877c24.884 0 45.056-20.172 45.056-45.056s-20.172-45.056-45.056-45.056v0zM832.171 129.877h-337.237c-24.884 0-45.056 20.172-45.056 45.056s20.172 45.056 45.056 45.056v0h337.237c24.884 0 45.056-20.172 45.056-45.056s-20.172-45.056-45.056-45.056v0zM182.955 501.931c-12.382 0.009-23.539 5.249-31.38 13.629l-0.022 0.024-104.448 103.083c-7.926 8.213-12.809 19.408-12.809 31.744s4.883 23.531 12.822 31.758l-0.013-0.014c8.175 8.289 19.531 13.424 32.085 13.424s23.91-5.135 32.080-13.419l68.272-68.272 141.995 169.984c8.071 12.926 22.219 21.398 38.345 21.398 24.884 0 45.056-20.172 45.056-45.056 0-13.378-5.831-25.395-15.089-33.647l-0.045-0.039-172.032-208.213c-8.002-9.428-19.595-15.596-32.64-16.378l-0.128-0.006z" />
<glyph unicode="&#xe916;" glyph-name="shop" data-tags="icon-shop" d="M438.272-29.867c-0.624-0.011-1.36-0.018-2.098-0.018-33.095 0-63.15 13.011-85.331 34.196l0.047-0.045-282.624 282.624c-22.532 22.285-36.486 53.204-36.486 87.381s13.953 65.096 36.474 87.37l0.011 0.011 453.291 451.243c7.844 7.93 18.695 12.872 30.701 12.971h393.918c24.13 0 43.691-19.561 43.691-43.691v0-393.899c-0.099-12.025-5.040-22.876-12.967-30.716l-0.004-0.004-451.243-453.291c-22.133-21.14-52.189-34.151-85.284-34.151-0.738 0-1.474 0.006-2.208 0.019l0.11-0.002zM570.027 839.168l-438.272-438.955c-6.597-6.658-10.672-15.824-10.672-25.941s4.076-19.283 10.675-25.944l-0.003 0.003 277.845-280.576c6.793-6.29 15.917-10.149 25.941-10.149s19.148 3.859 25.966 10.171l-0.025-0.023 438.955 438.955v332.459zM703.147 499.2c-77.642 0.034-140.57 62.983-140.57 140.629 0 77.667 62.962 140.629 140.629 140.629s140.629-62.962 140.629-140.629c0-1.44-0.022-2.876-0.065-4.305l0.005 0.209c-1.907-75.809-63.814-136.535-139.905-136.535-0.255 0-0.509 0.001-0.763 0.002h0.039zM703.147 693.077c-29.785 0-53.931-24.146-53.931-53.931s24.146-53.931 53.931-53.931c29.785 0 53.931 24.146 53.931 53.931v0c0 29.785-24.146 53.931-53.931 53.931v0z" />
<glyph unicode="&#xe917;" glyph-name="warehouse-management" data-tags="icon-warehouse-management" d="M984.405 407.723c-7.867 13.127-22.018 21.777-38.189 21.777-7.772 0-15.078-1.998-21.431-5.509l0.228 0.116-75.093-43.008-154.283 305.835c-5.202 10.557-14.44 18.458-25.647 21.771l-0.295 0.075c-4.942 2.105-10.691 3.328-16.725 3.328s-11.783-1.223-17.012-3.436l0.287 0.108-259.413-136.533-151.552 307.2c-7.066 14.648-21.803 24.576-38.858 24.576-0.019 0-0.038 0-0.057 0h-108.541c-1.637 0.217-3.529 0.341-5.451 0.341-24.13 0-43.691-19.561-43.691-43.691s19.561-43.691 43.691-43.691c1.921 0 3.814 0.124 5.67 0.365l-0.219-0.023h81.237l250.539-527.019c-32.407-31.644-52.504-75.771-52.504-124.592 0-92.277 71.799-167.785 162.579-173.706l0.517-0.027h12.288c91.934 0.603 166.846 72.658 172.011 163.381l0.021 0.459c0.654 6.142 1.027 13.267 1.027 20.48s-0.373 14.338-1.1 21.358l0.074-0.878 263.509 148.821c13.793 7.706 22.966 22.216 22.966 38.868 0 8.606-2.45 16.64-6.691 23.442l0.109-0.188zM532.48 78.677h-5.461c-47.238 1.332-85.025 39.944-85.025 87.381 0 48.277 39.137 87.414 87.414 87.414 0.84 0 1.678-0.012 2.512-0.035l-0.123 0.003h5.461c47.238-1.332 85.025-39.944 85.025-87.381 0-48.277-39.137-87.414-87.414-87.414-0.84 0-1.678 0.012-2.512 0.035l0.123-0.003zM542.037 340.139h-10.24c-15.902-0.23-31.139-2.709-45.524-7.131l1.151 0.305-73.045 152.917 72.363 38.912 34.816-68.267c7.196-14.275 21.739-23.895 38.528-23.895 0.135 0 0.27 0.001 0.405 0.002h-0.021c0.076-0.001 0.166-0.001 0.256-0.001 6.911 0 13.408 1.771 19.063 4.883l-0.205-0.103c14.42 7.338 24.126 22.068 24.126 39.065 0 6.896-1.598 13.419-4.443 19.219l0.114-0.257-36.181 70.315 75.093 40.277 136.533-268.288-109.227-60.757c-29.546 36.549-73.547 60.398-123.177 62.791l-0.386 0.015z" />
<glyph unicode="&#xe918;" glyph-name="shopping-card" data-tags="icon-shopping-card" d="M905.899 674.645c-1.473 22.174-19.82 39.602-42.238 39.602-0.271 0-0.541-0.003-0.811-0.008l0.040 0.001h-136.533c0.001 0.211 0.001 0.461 0.001 0.71 0 116.501-94.443 210.944-210.944 210.944-1.201 0-2.399-0.010-3.595-0.030l0.18 0.002c-1.423 0.035-3.099 0.054-4.78 0.054-116.501 0-210.944-94.443-210.944-210.944 0-0.259 0-0.518 0.001-0.777v0.040h-136.533c-0.229 0.004-0.5 0.007-0.77 0.007-22.417 0-40.764-17.428-42.231-39.474l-0.007-0.128-48.469-657.408c-0.059-0.868-0.092-1.881-0.092-2.902 0-11.762 4.439-22.486 11.734-30.59l-0.037 0.041c7.871-8.414 19.042-13.658 31.437-13.658 0.228 0 0.456 0.002 0.683 0.005h800.734c0.193-0.003 0.42-0.005 0.648-0.005 12.395 0 23.566 5.244 31.414 13.634l0.022 0.024c7.258 8.062 11.697 18.787 11.697 30.549 0 1.021-0.033 2.034-0.099 3.039l0.007-0.137zM512 839.168c1.221 0.043 2.656 0.067 4.096 0.067 68.996 0 124.928-55.932 124.928-124.928 0-0.024 0-0.047 0-0.071v0.004h-258.048c0 0.020 0 0.044 0 0.067 0 68.996 55.932 124.928 124.928 124.928 1.44 0 2.875-0.024 4.304-0.073l-0.208 0.006zM157.696 56.832l47.104 570.709h88.064v-170.667c0-24.13 19.561-43.691 43.691-43.691s43.691 19.561 43.691 43.691v0 170.667h263.509v-170.667c0-24.13 19.561-43.691 43.691-43.691s43.691 19.561 43.691 43.691v0 170.667h91.477l43.691-570.709z" />
<glyph unicode="&#xe919;" glyph-name="product" data-tags="icon-product" d="M933.888 703.317l-401.408 217.088c-5.858 3.516-12.926 5.595-20.48 5.595s-14.622-2.079-20.663-5.697l0.183 0.102-401.408-217.088c-13.165-7.859-21.845-22.030-21.845-38.229v-434.176c0.15-16.324 9.091-30.525 22.312-38.115l0.216-0.114 400.725-217.088c5.875-3.45 12.939-5.488 20.48-5.488s14.605 2.038 20.673 5.592l401.215 216.983c13.437 7.704 22.378 21.906 22.528 38.208v434.197c-0.15 16.324-9.091 30.525-22.312 38.115l-0.216 0.114zM512 467.797l-112.64 68.267 296.277 180.224c4.93 2.765 9.033 6.433 12.213 10.814l0.075 0.109 122.197-68.267zM512 833.024l110.592-60.075-307.2-185.685-121.515 73.728zM154.283 583.168l130.389-79.189v-103.765c0-24.13 19.561-43.691 43.691-43.691v0c23.834 0.384 43.008 19.796 43.008 43.685 0 0.002 0 0.004 0 0.006v0 51.2l96.939-58.709v-305.835l-314.027 169.984zM555.691 86.869v305.835l314.027 190.464v-326.315z" />
<glyph unicode="&#xe91a;" glyph-name="opportunity" data-tags="icon-opportunity" d="M946.176 56.832h-785.749l249.173 363.179 165.205-249.173c8.259-11.626 21.676-19.12 36.843-19.12 0.248 0 0.495 0.002 0.741 0.006h-0.037c15.834 0.513 29.488 9.375 36.751 22.308l0.113 0.22 266.923 484.011c3.363 6.008 5.344 13.183 5.344 20.821 0 23.877-19.356 43.232-43.232 43.232-16.238 0-30.386-8.953-37.776-22.192l-0.112-0.219-231.424-422.571-161.109 244.395c-7.969 11.631-21.183 19.164-36.157 19.164-0.729 0-1.454-0.018-2.174-0.053l0.101 0.004c-0.061 0-0.132 0-0.204 0-14.555 0-27.422-7.231-35.204-18.296l-0.091-0.137-253.269-369.323v729.088c0.217 1.637 0.341 3.529 0.341 5.451 0 24.13-19.561 43.691-43.691 43.691s-43.691-19.561-43.691-43.691c0-1.921 0.124-3.814 0.365-5.67l-0.023 0.219v-868.352s0 0 0-4.096c-0.293-1.231-0.461-2.644-0.461-4.096s0.168-2.865 0.485-4.221l-0.025 0.125c-0.14-1.229-0.22-2.653-0.22-4.096s0.080-2.867 0.236-4.269l-0.016 0.173 4.779-6.144c1.503-2.779 3.577-5.071 6.079-6.784l0.065-0.042h10.24c2.256-0.339 4.86-0.532 7.509-0.532s5.253 0.193 7.798 0.567l-0.289-0.035h875.861c1.637-0.217 3.529-0.341 5.451-0.341 24.13 0 43.691 19.561 43.691 43.691s-19.561 43.691-43.691 43.691c-1.921 0-3.814-0.124-5.67-0.365l0.219 0.023z" />
<glyph unicode="&#xe91b;" glyph-name="bill" data-tags="icon-bill" d="M912.725-29.867h-801.451c-0.002 0-0.004 0-0.005 0-23.753 0-43.008 19.255-43.008 43.008 0 0.24 0.002 0.48 0.006 0.719v-0.036 868.352c-0.003 0.203-0.005 0.443-0.005 0.683 0 23.753 19.255 43.008 43.008 43.008 0.002 0 0.004 0 0.006 0h801.45c0.205 0.004 0.446 0.006 0.688 0.006 23.753 0 43.008-19.255 43.008-43.008 0-0.242-0.002-0.484-0.006-0.725v0.036-868.352c0.004-0.205 0.006-0.446 0.006-0.688 0-23.753-19.255-43.008-43.008-43.008-0.242 0-0.484 0.002-0.725 0.006h0.036zM154.283 56.832h715.435v782.336h-715.435zM546.133 648.704h-289.451c-24.13 0-43.691 19.561-43.691 43.691s19.561 43.691 43.691 43.691v0h289.451c24.13 0 43.691-19.561 43.691-43.691s-19.561-43.691-43.691-43.691v0zM546.133 486.229h-289.451c-23.753 0-43.008 19.255-43.008 43.008v0c0 0.002 0 0.003 0 0.005 0 23.89 19.174 43.301 42.972 43.685h289.487c24.13 0 43.691-19.561 43.691-43.691v0c-0.384-23.834-19.796-43.008-43.685-43.008-0.002 0-0.004 0-0.006 0v0zM546.133 323.072h-289.451c-23.834 0.384-43.008 19.796-43.008 43.685 0 0.002 0 0.004 0 0.006v0c0 23.753 19.255 43.008 43.008 43.008v0h289.451c0.002 0 0.003 0 0.005 0 23.89 0 43.301-19.174 43.685-42.972v-0.036c0-24.13-19.561-43.691-43.691-43.691v0zM546.133 159.915h-289.451c-24.13 0-43.691 19.561-43.691 43.691s19.561 43.691 43.691 43.691h289.451c24.13 0 43.691-19.561 43.691-43.691s-19.561-43.691-43.691-43.691v0zM767.317 648.704h-96.256c-24.13 0-43.691 19.561-43.691 43.691s19.561 43.691 43.691 43.691v0h96.256c24.13 0 43.691-19.561 43.691-43.691s-19.561-43.691-43.691-43.691v0zM767.317 486.229h-96.256c-23.753 0-43.008 19.255-43.008 43.008v0c0 0.002 0 0.003 0 0.005 0 23.89 19.174 43.301 42.972 43.685h96.292c23.834-0.384 43.008-19.796 43.008-43.685 0-0.002 0-0.004 0-0.006v0c0-23.753-19.255-43.008-43.008-43.008v0zM767.317 323.072h-96.256c-23.834 0.384-43.008 19.796-43.008 43.685 0 0.002 0 0.004 0 0.006v0c0 23.753 19.255 43.008 43.008 43.008v0h96.256c23.753 0 43.008-19.255 43.008-43.008v0c0-0.002 0-0.003 0-0.005 0-23.89-19.174-43.301-42.972-43.685h-0.036zM767.317 173.568h-96.256c-24.13 0-43.691 19.561-43.691 43.691s19.561 43.691 43.691 43.691h96.256c24.13 0 43.691-19.561 43.691-43.691s-19.561-43.691-43.691-43.691v0z" />
<glyph unicode="&#xe91c;" glyph-name="finances" data-tags="icon-finances" d="M848.555 636.416c-109.227 118.784-230.741 195.925-317.44 195.925-1.445 0.069-3.139 0.108-4.842 0.108-31.173 0-59.277-13.141-79.074-34.186l-0.052-0.056c-4.905-5.812-9.424-12.289-13.323-19.164l-0.33-0.633-92.16-91.477c-18.14-21.185-29.224-48.88-29.355-79.161v-0.028c-163.84-12.288-311.979-77.141-311.979-185.685 0-2.731 0-8.192 0-8.192s0 0 0-4.096v-136.533c0-109.909 166.571-193.195 387.072-193.195 3.505-0.067 7.638-0.104 11.78-0.104 87.929 0 171.868 17.085 248.677 48.117l-4.457-1.591c45.323-33.197 100.94-54.953 161.307-59.996l1.167-0.079c2.212-0.166 4.792-0.26 7.394-0.26 29.125 0 55.483 11.843 74.522 30.976l0.004 0.004 92.16 95.573c4.87 3.651 9.126 7.69 12.874 12.169l0.097 0.119c81.92 88.064-10.923 283.989-144.043 431.445zM507.221 742.912s6.827 7.509 23.211 7.509c49.835 0 151.552-52.565 256.683-168.619 136.533-147.456 175.445-289.451 146.091-322.219 0 0-6.827-7.509-23.211-7.509v0c-50.517 0-152.235 52.565-256.683 168.619-133.12 148.139-175.445 290.133-145.408 322.219zM321.536 529.92c28.331-83.098 68.948-154.978 120.419-217.599l-0.952 1.194c-17.749 0-35.499 0-53.931 0-186.368 0-305.152 68.267-305.152 110.592s90.112 92.843 239.616 105.813zM389.803 159.232c-186.368 0-305.152 68.267-305.152 111.275v30.72c79.836-43.453 174.84-69.002 275.811-69.002 10.32 0 20.578 0.267 30.768 0.794l-1.426-0.059c42.197 0.020 83.567 3.495 123.861 10.157l-4.394-0.6c18.555-19.91 37.707-38.413 57.787-55.876l0.922-0.785c-54.092-16.569-116.299-26.273-180.721-26.623l-0.186-0.001zM808.96 145.579c-51.2 0-153.6 52.565-258.731 168.619-136.533 146.773-176.811 288.085-149.504 318.805l25.941 24.576c33.621-113.716 91.065-211.554 166.893-291.843l-0.323 0.345c68.584-82.673 156.924-146.635 257.889-184.95l4.255-1.418-25.941-26.624c-5.018-4.812-11.843-7.775-19.36-7.775-1.358 0-2.694 0.097-4 0.284l0.15-0.018z" />
<glyph unicode="&#xe91d;" glyph-name="newsletter" data-tags="icon-newsletter" d="M934.571 857.6h-644.437c-49.634-1.145-89.432-41.652-89.432-91.454 0-0.248 0.001-0.496 0.003-0.743v0.038-443.733c-0.007-0.409-0.010-0.892-0.010-1.375 0-49.668 39.881-90.021 89.368-90.784l0.072-0.001h644.437c49.558 0.763 89.44 41.116 89.44 90.785 0 0.484-0.004 0.966-0.011 1.448l0.001-0.073v443.733c0.002 0.21 0.003 0.457 0.003 0.706 0 49.802-39.798 90.309-89.326 91.453l-0.106 0.002zM856.747 770.219l-223.915-231.424c-6.358-6.692-15.322-10.854-25.259-10.854s-18.901 4.163-25.245 10.84l-0.014 0.015-224.597 231.424zM934.571 316.928h-644.437c-2.329 0.346-4.096 2.331-4.096 4.73 0 0.017 0 0.034 0 0.052v-0.003 398.677l235.52-243.712c21.569-22.726 51.995-36.864 85.723-36.864 0.103 0 0.206 0 0.309 0h-0.016c0.059 0 0.129 0 0.199 0 33.544 0 63.784 14.148 85.077 36.803l0.057 0.061 245.76 253.952v-409.6c-0.296-2.132-1.964-3.8-4.071-4.093l-0.025-0.003zM879.957 125.781h-750.933c-24.367 1.123-43.696 21.151-43.696 45.693 0 0.256 0.002 0.512 0.006 0.767v-0.038 522.923c0.003 0.205 0.005 0.446 0.005 0.688 0 23.892-19.177 43.304-42.978 43.685h-0.036c-23.538-0.756-42.331-20.018-42.331-43.67 0-0.247 0.002-0.494 0.006-0.741v0.037-522.923c-0.056-1.433-0.088-3.115-0.088-4.805 0-71.837 57.491-130.246 128.973-131.726l0.138-0.002h750.933c23.46 0.381 42.331 19.488 42.331 43.003 0 0.242-0.002 0.483-0.006 0.724v-0.036c0.087 1.023 0.136 2.214 0.136 3.417 0 23.56-18.945 42.696-42.432 43.004h-0.029z" />
<glyph unicode="&#xe91e;" glyph-name="sms" data-tags="icon-sms" d="M591.872 665.088h-427.349c-72.012 0-130.389 58.377-130.389 130.389s58.377 130.389 130.389 130.389h427.349c72.012 0 130.389-58.377 130.389-130.389s-58.377-130.389-130.389-130.389v0zM164.523 839.168c-24.13 0-43.691-19.561-43.691-43.691v0c1.825-22.616 20.629-40.278 43.557-40.278 0.047 0 0.094 0 0.141 0h427.342c0.203-0.003 0.443-0.005 0.683-0.005 23.753 0 43.008 19.255 43.008 43.008 0 0.002 0 0.004 0 0.006v0c0 24.13-19.561 43.691-43.691 43.691v0zM859.477 317.611h-428.032c-72.012 0-130.389 58.377-130.389 130.389s58.377 130.389 130.389 130.389h428.032c72.012 0 130.389-58.377 130.389-130.389s-58.377-130.389-130.389-130.389v0zM431.445 491.691c-24.13 0-43.691-19.561-43.691-43.691s19.561-43.691 43.691-43.691v0h428.032c24.13 0 43.691 19.561 43.691 43.691s-19.561 43.691-43.691 43.691v0zM591.872-29.867h-427.349c-72.012 0-130.389 58.377-130.389 130.389s58.377 130.389 130.389 130.389h427.349c72.012 0 130.389-58.377 130.389-130.389s-58.377-130.389-130.389-130.389v0zM164.523 140.8c-0.002 0-0.003 0-0.005 0-23.89 0-43.301-19.174-43.685-42.972v-0.036c0-24.13 19.561-43.691 43.691-43.691h427.349c24.13 0 43.691 19.561 43.691 43.691v0c0 0.002 0 0.004 0 0.005 0 23.753-19.255 43.008-43.008 43.008-0.24 0-0.48-0.002-0.719-0.006h0.036z" />
<glyph unicode="&#xe91f;" glyph-name="contract" data-tags="icon-contract" d="M294.912 694.443h337.92c23.753 0 43.008 19.255 43.008 43.008v0c0 0.002 0 0.003 0 0.005 0 23.89-19.174 43.301-42.972 43.685h-337.956c-24.13 0-43.691-19.561-43.691-43.691v0c0.384-23.834 19.796-43.008 43.685-43.008 0.002 0 0.004 0 0.006 0v0zM917.504 473.259v409.6c-0.384 23.834-19.796 43.008-43.685 43.008-0.002 0-0.004 0-0.006 0h-723.626c-24.13 0-43.691-19.561-43.691-43.691v-273.067c-42.216-13.017-72.363-51.682-72.363-97.39 0-0.081 0-0.163 0-0.244v0.013-458.752c0-0.001 0-0.002 0-0.003 0-45.62 36.982-82.603 82.603-82.603 0.24 0 0.48 0.001 0.719 0.003h789.126c0.203-0.002 0.443-0.003 0.683-0.003 45.62 0 82.603 36.982 82.603 82.603 0 0.001 0 0.002 0 0.003v0 341.333c-1.122 40.962-32.146 74.344-71.971 79.151l-0.392 0.039zM830.805 839.168v-363.861h-204.8c-1.324-0.194-2.853-0.304-4.408-0.304-7.668 0-14.708 2.69-20.227 7.177l0.059-0.046-75.776 90.112c-21.381 24.33-52.564 39.604-87.314 39.604-0.504 0-1.006-0.003-1.508-0.010l0.076 0.001h-243.712v227.328zM120.832 52.736v458.752c0 6.144 8.192 13.653 19.797 13.653h296.277c0.362 0.016 0.788 0.025 1.215 0.025 8.678 0 16.496-3.68 21.979-9.564l0.017-0.018 75.776-87.381c21.381-24.33 52.564-39.604 87.314-39.604 0.504 0 1.006 0.003 1.508 0.010l-0.076-0.001h217.088l61.44 4.779v-336.555zM409.6 379.051l-93.525-107.861-38.912 38.912c-7.959 7.645-18.79 12.353-30.72 12.353s-22.761-4.708-30.735-12.368l0.015 0.014c-7.969-7.812-12.909-18.689-12.909-30.72s4.94-22.908 12.902-30.713l0.007-0.007 72.363-73.045c7.751-7.601 18.38-12.292 30.104-12.292 0.217 0 0.433 0.002 0.649 0.005h-0.033c12.669 0.564 23.841 6.527 31.344 15.628l0.059 0.073 122.88 144.725c6.098 7.482 9.793 17.133 9.793 27.648 0 24.26-19.666 43.926-43.926 43.926-13.745 0-26.016-6.313-34.070-16.198l-0.063-0.080z" />
<glyph unicode="&#xe920;" glyph-name="user" data-tags="icon-user" d="M986.453 519.68h-324.949c-18.449 2.576-32.495 18.25-32.495 37.205s14.046 34.629 32.297 37.183l0.198 0.023h324.949c1.517 0.217 3.27 0.341 5.051 0.341 20.736 0 37.547-16.81 37.547-37.547s-16.81-37.547-37.547-37.547c-1.781 0-3.534 0.124-5.249 0.364l0.198-0.023zM893.611 663.040h-232.107c-20.359 0-36.864 16.505-36.864 36.864v0c0 0.002 0 0.004 0 0.006 0 20.496 16.423 37.157 36.828 37.54l0.036 0.001h232.107c20.736 0 37.547-16.81 37.547-37.547v0c0-0.002 0-0.004 0-0.006 0-20.359-16.505-36.864-36.864-36.864-0.24 0-0.48 0.002-0.718 0.007l0.036-0.001zM621.227 72.533h-577.536c-0.025 0-0.055 0-0.085 0-23.169 0-42.126 18.034-43.599 40.831l-0.007 0.129c-0.155 4.147-0.243 9.019-0.243 13.911 0 106.675 41.968 203.547 110.294 275.007l-0.142-0.149c7.801 7.717 18.533 12.484 30.379 12.484 23.861 0 43.204-19.343 43.204-43.204 0-12.015-4.905-22.885-12.821-30.716l-0.004-0.004c-45.34-48.548-75.137-112.131-81.159-182.5l-0.078-1.137h486.059c-5.817 71.562-35.675 135.219-81.382 183.793l0.145-0.155c-7.92 7.835-12.825 18.705-12.825 30.72 0 23.861 19.343 43.204 43.204 43.204 11.846 0 22.578-4.767 30.383-12.488l-0.004 0.004c68.184-71.31 110.153-168.183 110.153-274.857 0-4.892-0.088-9.763-0.263-14.612l0.020 0.702c-1.479-22.926-20.436-40.96-43.605-40.96-0.030 0-0.060 0-0.090 0h0.005zM332.459 387.243c-0.614-0.006-1.339-0.010-2.065-0.010-121.577 0-220.314 97.788-221.849 219.001l-0.001 0.145c2.672 120.465 100.959 217.098 221.815 217.098 0.738 0 1.475-0.004 2.212-0.011l-0.112 0.001c0.624 0.006 1.361 0.010 2.099 0.010 120.857 0 219.144-96.633 221.811-216.849l0.004-0.248c-1.536-121.358-100.273-219.146-221.85-219.146-0.726 0-1.451 0.003-2.175 0.010l0.111-0.001zM332.459 738.816c-0.018 0-0.040 0-0.061 0-73.965 0-134.193-58.815-136.467-132.228l-0.005-0.209c2.279-73.622 62.507-132.437 136.472-132.437 0.022 0 0.043 0 0.065 0h-0.003c0.018 0 0.040 0 0.061 0 73.965 0 134.193 58.815 136.467 132.228l0.005 0.209c-2.279 73.622-62.507 132.437-136.472 132.437-0.022 0-0.043 0-0.065 0h0.003z" />
<glyph unicode="&#xe921;" glyph-name="time" data-tags="icon-time" d="M512-29.867c-263.918 0-477.867 213.948-477.867 477.867s213.948 477.867 477.867 477.867c263.918 0 477.867-213.948 477.867-477.867v0c0-263.918-213.948-477.867-477.867-477.867v0zM512 839.168c-216.036 0-391.168-175.132-391.168-391.168s175.132-391.168 391.168-391.168c216.036 0 391.168 175.132 391.168 391.168v0c-0.388 215.88-175.288 390.78-391.13 391.168h-0.038zM505.173 345.6c-0.131-0.001-0.285-0.002-0.439-0.002-8.705 0-16.815 2.546-23.627 6.933l0.173-0.104c-11.594 7.826-19.117 20.915-19.117 35.762 0 0.148 0.001 0.295 0.002 0.442v-0.022 290.816c-1.083 3.622-1.707 7.784-1.707 12.092 0 24.13 19.561 43.691 43.691 43.691s43.691-19.561 43.691-43.691c0-4.308-0.623-8.47-1.785-12.401l0.078 0.309v-223.232l141.995 60.757c4.95 2.073 10.702 3.277 16.735 3.277 18.034 0 33.555-10.758 40.496-26.207l0.113-0.281c2.182-4.979 3.451-10.781 3.451-16.881 0-17.857-10.883-33.173-26.379-39.675l-0.283-0.106-204.8-86.699c-3.527-2.217-7.65-3.88-12.059-4.741l-0.229-0.037z" />
<glyph unicode="&#xe922;" glyph-name="accounting" data-tags="icon-accounting" d="M882.688 925.867h-307.2c-24.039-0.048-46.149-8.263-63.715-22.017l0.227 0.171c-17.339 13.582-39.449 21.797-63.477 21.845h-307.211c-59.365-0.76-107.198-49.062-107.198-108.536 0-0.723 0.007-1.444 0.021-2.164l-0.002 0.108v-734.549c-0.012-0.612-0.019-1.333-0.019-2.056 0-59.474 47.833-107.776 107.127-108.535l0.072-0.001h307.2c24.039 0.048 46.149 8.263 63.715 22.017l-0.227-0.171c17.339-13.582 39.449-21.797 63.477-21.845h307.211c59.365 0.76 107.198 49.062 107.198 108.536 0 0.723-0.007 1.444-0.021 2.164l0.002-0.108v734.549c0.012 0.612 0.019 1.333 0.019 2.056 0 59.474-47.833 107.776-107.127 108.535l-0.072 0.001zM575.488 839.168h307.2c11.551-1.061 20.527-10.702 20.527-22.439 0-0.512-0.017-1.019-0.051-1.523l0.004 0.068v-189.781h-347.477v189.781c-0.067 0.64-0.105 1.383-0.105 2.135 0 11.381 8.703 20.729 19.816 21.752l0.086 0.006zM141.312 839.168h307.2c11.157-1.074 19.811-10.402 19.811-21.75 0-0.273-0.005-0.546-0.015-0.817l0.001 0.039v-191.147h-347.477v189.781c-0.030 0.435-0.047 0.943-0.047 1.454 0 11.737 8.976 21.378 20.439 22.432l0.088 0.007zM448.512 56.832h-307.2c-11.551 1.061-20.527 10.702-20.527 22.439 0 0.512 0.017 1.019 0.051 1.523l-0.004-0.068v458.069h347.477v-459.435c0.009-0.232 0.014-0.504 0.014-0.778 0-11.349-8.654-20.676-19.722-21.743l-0.089-0.007zM882.688 56.832h-307.2c-11.174 1.057-19.846 10.393-19.846 21.754 0 0.513 0.018 1.021 0.052 1.525l-0.004-0.068v458.752h347.477v-458.069c0.030-0.435 0.047-0.943 0.047-1.454 0-11.737-8.976-21.378-20.439-22.432l-0.088-0.007zM720.213 392.021c-2.080 0.119-4.514 0.187-6.964 0.187-69.54 0-126.298-54.724-129.559-123.457l-0.011-0.293c-0.062-1.513-0.098-3.288-0.098-5.071 0-69.678 54.088-126.723 122.568-131.439l0.41-0.023h8.192c69.412 0.604 125.977 54.79 130.369 123.176l0.020 0.387c0.076 1.671 0.12 3.63 0.12 5.6 0 70.27-55.298 127.625-124.752 130.922l-0.296 0.011zM746.155 223.403c-9.286-8.081-21.504-13.008-34.872-13.008-0.7 0-1.398 0.014-2.091 0.040l0.1-0.003c-26.428 1.801-47.184 23.68-47.184 50.407 0 0.999 0.029 1.992 0.086 2.977l-0.006-0.136c0.374 26.482 21.929 47.806 48.465 47.806 0.482 0 0.962-0.007 1.44-0.021l-0.070 0.002h3.413c26.377-1.425 47.226-23.161 47.226-49.766 0-1.225-0.044-2.44-0.131-3.643l0.009 0.161c-0.778-13.811-6.917-26.052-16.35-34.785l-0.034-0.031zM318.123 392.021c-2.733 0.208-5.919 0.327-9.132 0.327-33.062 0-63.188-12.568-85.862-33.188l0.104 0.093c-26.796-24.213-43.562-59.091-43.562-97.884 0-69.839 54.338-126.986 123.042-131.471l0.392-0.020h7.509c1.119-0.034 2.434-0.054 3.755-0.054 72.419 0 131.126 58.707 131.126 131.126 0 71.098-56.586 128.981-127.179 131.068l-0.192 0.004zM341.333 223.403c-8.957-8.405-20.869-13.754-34.021-14.332l-0.112-0.004c-26.428 1.801-47.184 23.68-47.184 50.407 0 0.999 0.029 1.992 0.086 2.977l-0.006-0.136c0.857 14.136 7.251 26.63 17.021 35.458l0.045 0.040c8.62 7.635 20.026 12.297 32.521 12.297 0.327 0 0.653-0.003 0.978-0.010l-0.049 0.001c25.968-2.307 46.175-23.959 46.175-50.33 0-14.275-5.921-27.167-15.44-36.354l-0.015-0.014z" />
<glyph unicode="&#xe923;" glyph-name="marketing" data-tags="icon-marketing" d="M905.216 850.091c-19.885 10.17-43.35 16.203-68.208 16.384h-0.059c-59.543-0.426-110.989-34.666-136.131-84.454l-0.403-0.879c-10.304-20.335-16.339-44.334-16.339-69.742 0-48.418 21.916-91.718 56.369-120.52l0.248-0.202s0 0-3.413-5.461l-60.075-132.437c-1.673-4.187-2.879-9.044-3.394-14.105l-0.019-0.231h-10.923c-30.885-0.312-60.17-6.81-86.79-18.309l1.456 0.56-146.773 216.405c21.881 26.856 35.135 61.496 35.135 99.232 0 32.459-9.807 62.628-26.62 87.705l0.359-0.569c-27.834 41.153-74.335 67.848-127.070 67.848-32.37 0-62.391-10.058-87.108-27.219l0.504 0.331c-40.231-28.809-66.137-75.4-66.137-128.042 0-32.999 10.18-63.62 27.57-88.894l-0.345 0.53c27.445-41.283 73.719-68.151 126.276-68.267h0.018c17.729 0.14 34.602 3.636 50.069 9.884l-0.917-0.327 146.773-215.040c-31.617-32.965-52.925-76.039-58.61-123.904l-0.099-1.024h-115.371c-17.464 62.010-70.981 107.693-135.956 113.283l-0.577 0.040h-10.923c-83.847-2.7-150.791-71.318-150.791-155.572 0-81.128 62.069-147.759 141.31-154.996l0.607-0.045h8.875c70.362 0.451 129.461 48.142 147.204 112.928l0.252 1.078h120.832c24.646-93.194 108.207-160.777 207.553-160.777 118.386 0 214.357 95.971 214.357 214.357 0 1.083-0.008 2.165-0.024 3.244l0.002-0.163c-0.549 86.818-51.816 161.531-125.639 196.047l-1.337 0.561 60.757 131.072s0 4.779 0 6.827 15.701 0 23.211 0c59.678 0.562 111.165 35.072 136.131 85.126l0.402 0.89c10.166 20.168 16.119 43.957 16.119 69.137 0 59.239-32.949 110.782-81.52 137.302l-0.817 0.409zM254.635 695.808c-7.583 11.332-12.102 25.273-12.102 40.269 0 24.389 11.953 45.986 30.32 59.253l0.214 0.147c11.196 8.355 25.306 13.376 40.588 13.376 24.18 0 45.424-12.571 57.552-31.534l0.164-0.274c7.973-11.331 12.742-25.418 12.742-40.619 0-39.273-31.837-71.11-71.11-71.11-24.073 0-45.351 11.962-58.217 30.265l-0.151 0.226zM186.368 135.339h-2.731c-18.844 1.79-35.337 10.631-47.039 23.819l-0.065 0.074c-11.853 12.263-19.157 28.988-19.157 47.42 0 0.849 0.016 1.695 0.046 2.537l-0.004-0.122c0 37.703 30.564 68.267 68.267 68.267v0h4.096c19.45-1.024 36.61-10.041 48.392-23.801l0.078-0.093c14.516-12.589 23.644-31.060 23.644-51.664 0-37.703-30.564-68.267-68.267-68.267-2.799 0-5.558 0.168-8.269 0.496l0.327-0.032zM793.941 222.037c-2.277-71.359-60.671-128.341-132.374-128.341-73.143 0-132.437 59.294-132.437 132.437 0 73.121 59.258 132.401 132.371 132.437h0.003c74.221-1.532 133.803-62.061 133.803-136.506 0-0.010 0-0.019 0-0.029v0.002zM898.389 678.741c-11.095-23.58-34.656-39.612-61.962-39.612-0.537 0-1.072 0.006-1.606 0.019l0.079-0.001c-11.764 0.061-22.809 3.088-32.44 8.37l0.355-0.178c-23.262 12.165-38.865 36.124-38.865 63.728 0 11.602 2.757 22.561 7.65 32.256l-0.188-0.411c11.095 23.58 34.656 39.612 61.962 39.612 0.537 0 1.072-0.006 1.606-0.019l-0.079 0.001c0.281 0.004 0.613 0.007 0.946 0.007 11.369 0 22.089-2.779 31.517-7.695l-0.378 0.179c23.906-12.146 40-36.555 40-64.723 0-11.472-2.669-22.32-7.421-31.958l0.189 0.424z" />
<glyph unicode="&#xe924;" glyph-name="certificate" data-tags="certificate" d="M791.211 4.267c-9.897 0.207-18.922 3.78-26.014 9.616l0.073-0.058-253.269 208.896-253.269-208.896c-6.867-5.878-15.855-9.455-25.678-9.455-6.307 0-12.269 1.474-17.561 4.098l0.231-0.104c-13.787 6.188-23.215 19.796-23.215 35.605 0 0.203 0.002 0.405 0.005 0.606v-0.031 806.912c-0.004 0.205-0.006 0.447-0.006 0.689 0 21.868 17.727 39.595 39.595 39.595 0.242 0 0.484-0.002 0.725-0.007l-0.036 0.001h558.421c0.205 0.004 0.447 0.006 0.689 0.006 21.868 0 39.595-17.727 39.595-39.595 0-0.242-0.002-0.484-0.007-0.725l0.001 0.036v-806.912c0.003-0.171 0.004-0.373 0.004-0.576 0-15.81-9.428-29.417-22.969-35.507l-0.246-0.099c-4.906-2.581-10.721-4.096-16.889-4.096-0.062 0-0.125 0-0.187 0h0.010zM512 315.563c9.897-0.207 18.922-3.78 26.014-9.616l-0.073 0.058 212.992-176.128v682.667h-477.867v-682.667l212.992 176.128c7.020 5.777 16.044 9.35 25.896 9.557l0.045 0.001z" />
<glyph unicode="&#xe925;" glyph-name="text-image" data-tags="text-image" d="M446.96 806.372c-18.111-3.253-33.788-18.046-38.997-36.617-1.302-4.677-1.302-5.498-1.655-48.517l-0.289-43.791-1.897 4.74c-1.013 2.603-3.198 7.81-4.788 11.538s-4.435 10.413-6.267 14.799c-4.196 9.883-7.339 16.685-9.111 20.008l-1.412 2.495h-26.564c-25.391 0-26.564-0.070-27.097-1.125-0.353-0.595-1.543-3.612-2.668-6.626-1.125-3.073-3.133-8.34-4.5-11.78s-3.253-8.34-4.196-10.943c-0.948-2.603-2.008-5.272-2.31-5.913s-1.543-3.728-2.714-6.806c-2.54-6.861-5.863-15.377-9.111-23.671-1.302-3.438-3.31-8.582-4.435-11.538-1.060-2.899-3.073-8.108-4.435-11.538s-3.486-9-4.853-12.421c-1.302-3.438-3.253-8.462-4.323-11.246s-3.022-7.81-4.323-11.246c-1.302-3.438-3.486-9-4.853-12.421-1.302-3.438-3.31-8.582-4.435-11.538-1.060-2.899-3.073-8.108-4.435-11.538s-3.486-8.866-4.74-12.133c-1.187-3.253-3.198-8.462-4.381-11.538-1.232-3.073-3.253-8.282-4.5-11.538s-3.198-8.282-4.381-11.246c-1.956-5.030-5.383-13.965-9.225-23.954-0.948-2.427-2.957-7.633-4.5-11.538-1.478-3.905-3.612-9.353-4.677-12.133s-3.022-7.81-4.323-11.246c-1.302-3.438-3.375-8.758-4.555-11.835-1.125-3.073-2.495-6.396-2.899-7.391-0.469-0.948-1.478-3.612-2.361-5.913-0.828-2.25-2.603-6.927-3.905-10.348-1.367-3.438-3.486-8.866-4.74-12.133-1.187-3.253-3.375-8.821-4.74-12.421-1.367-3.552-3.375-8.758-4.435-11.538s-3.073-7.923-4.435-11.538c-1.367-3.552-3.552-9.177-4.74-12.421-1.232-3.253-3.253-8.462-4.435-11.538-1.232-3.073-3.253-8.282-4.5-11.538-5.498-14.495-7.103-18.7-9.405-24.554-1.302-3.438-3.31-8.582-4.435-11.538-1.125-2.899-3.073-8.108-4.435-11.538s-3.438-8.866-4.677-12.133c-2.957-7.749-6.508-16.986-9.225-23.954-1.187-3.073-3.253-8.405-4.555-11.835s-3.253-8.462-4.323-11.246c-1.956-5.094-4.74-12.421-9.051-23.671-1.302-3.438-3.375-8.758-4.555-11.835-2.25-5.683-4.965-12.84-8.821-23.076-1.187-3.073-2.427-6.155-2.714-6.806s-1.232-2.899-2.008-5.030c-4.435-11.835-12.548-21.894-22.607-28.040-7.81-4.74-23.606-9.53-41.063-12.486-13.258-2.25-29.408-5.498-32.671-6.573l-2.845-0.948v-4.555c0-2.54-0.177-9.818-0.418-16.215l-0.353-11.65h11.246c24.678 0 56.212 3.073 78.289 7.698 6.573 1.367 16.5 1.543 35.033 0.595 11.65-0.595 14.799-0.828 36.572-2.668 32.783-2.78 66.802-4.965 76.987-5.030h6.332l0.353 1.832c0.177 1.013 0.353 9 0.353 17.693v15.796l-8.052 0.707c-10.168 0.883-31.543 3.905-35.455 5.030-1.597 0.469-6.267 1.771-10.348 2.957-18.341 5.139-25.256 9.59-29.649 18.995-3.552 7.519-2.603 13.435 6.396 40.834 2.427 7.519 5.448 16.391 6.685 19.823s4.555 12.486 7.391 20.12c5.094 14.075 6.222 17.098 10.129 27.223 7.28 19.065 17.398 44.386 19.469 48.644l1.125 2.25h53.546c29.473 0 71.832-0.177 94.025-0.418l40.479-0.353 1.367-3.022c0.707-1.655 2.714-6.332 4.435-10.413s3.842-9.111 4.74-11.246c0.883-2.13 3.022-7.165 4.74-11.246s3.842-9.111 4.74-11.246c0.883-2.13 2.603-6.155 3.797-9 1.187-2.899 3.073-7.391 4.196-10.060 1.125-2.714 2.603-6.396 3.253-8.163 0.707-1.771 1.655-4.016 2.073-5.030 0.469-0.948 1.655-3.905 2.714-6.508 1.013-2.603 2.899-7.391 4.196-10.655s3.375-8.582 4.611-11.835c1.232-3.253 3.486-9.111 5.030-13.016 5.094-13.016 9-25.149 10.348-31.834 0.828-4.016 0.070-8.462-1.771-11.072-2.13-3.022-8.34-6.927-14.26-8.866-3.073-1.060-9.818-2.78-15.024-3.905-5.207-1.060-14.495-3.022-20.715-4.323-37.813-8.052-35.27-7.457-35.804-8.34-0.53-0.828-1.060-8.163-1.543-21.709l-0.418-10.168 6.75 0.289c21.003 0.948 32.783 1.478 47.872 2.25 58.992 3.133 103.136 4.258 130.289 3.375 20.951-0.707 57.812-2.495 73.843-3.663 17.628-1.232 28.040-1.72 46.329-2.073l18.753-0.418v8.647c0 9-0.828 18.7-2.008 23.429l-0.654 2.714-7.103 1.897c-3.905 1.060-11.361 2.845-16.568 3.97-27.753 5.978-35.5 8.163-43.726 12.374-7.391 3.842-10.348 8.163-21.179 31.128-9.641 20.586-16.5 36.797-28.579 67.815-7.391 18.93-12.84 32.783-13.901 35.209-0.654 1.478-3.022 7.215-5.272 12.728-2.25 5.56-5.094 12.31-6.267 15.090-4.965 11.538-7.519 17.516-7.81 18.465-0.289 1.013 10.348 1.060 207.569 1.187l207.927 0.177 4.323 1.367c17.098 5.324 30.291 18.576 35.144 35.455l1.367 4.611v400.596l-1.367 4.677c-4.853 16.685-18.161 30.114-35.033 35.386l-4.435 1.367-259.47 0.115c-221.78 0.070-260.122-0.070-264.090-0.772zM966.319 765.66c1.367-0.772 3.022-2.495 3.797-3.797l1.302-2.361v-388.467l-1.412-2.427c-0.772-1.367-2.495-3.022-3.797-3.797l-2.361-1.302-426.22 0.289-2.361 5.625c-1.302 3.073-2.899 7.103-3.612 8.866-1.187 3.133-3.552 8.866-7.923 19.284-1.125 2.668-2.008 5.272-2.008 5.802 0 0.883 15.266 0.948 204.735 0.948h204.735v140.527l-131.364 131.364-161.539-161.539-25.256 25.326-25.326 25.256-46.861-46.861c-25.795-25.795-47.035-46.682-47.277-46.505-0.177 0.242-1.655 3.663-3.31 7.698-3.905 9.641-6.332 15.508-9.353 22.658-1.367 3.253-3.375 8.052-4.435 10.655-3.97 9.59-13.258 31.363-16.326 38.342-1.232 2.845-2.31 5.272-2.31 5.448 0 0.115-0.654 1.655-1.412 3.375-1.478 3.253-2.603 5.863-7.103 16.745l-2.714 6.508v87.693c0 60.647 0.177 88.168 0.654 89.348 0.772 2.008 2.603 4.147 4.965 5.56 1.72 1.060 9.051 1.125 256.747 1.125h254.976l2.427-1.412zM323.704 534.534c3.31-7.038 10.168-22.193 14.141-31.063 1.125-2.603 2.668-6.037 3.375-7.698 2.899-6.441 15.266-36.511 19.171-46.451 1.897-4.74 4.016-10.168 4.788-12.133 7.28-18.399 17.757-46.816 24.554-66.867 1.232-3.552 2.427-6.927 2.603-7.457 0.654-1.543-3.31-1.771-32.671-1.771-27.097 0-114.386 1.232-114.851 1.597-0.115 0.115 0.469 1.897 1.302 3.905 0.883 2.073 2.25 5.625 3.022 7.875 0.828 2.31 2.714 7.339 4.196 11.246 2.899 7.519 5.498 14.495 9.177 24.266 1.232 3.253 3.31 8.866 4.677 12.421 6.98 18.399 9.465 24.973 13.671 36.269 2.714 7.103 5.272 13.901 8.935 23.495 1.367 3.612 3.438 9.177 4.677 12.421 2.185 5.978 4.435 11.835 8.935 23.671 3.905 10.348 6.75 17.87 9.051 24.201 3.438 9.353 3.022 9.177 6.332 2.361 1.543-3.198 3.728-7.875 4.92-10.302zM539.153 726.192c-23.429-3.198-42.904-19.943-49.704-42.842-2.31-7.569-2.714-21.598-1.013-30.003 2.78-13.37 10.236-25.391 21.421-34.372 5.802-4.677 14.614-9.225 21.598-11.185 4.147-1.125 6.155-1.302 16.275-1.302 10.892 0 11.835 0.115 16.859 1.655 21.245 6.508 37.394 23.783 42.071 45.027 0.707 3.375 1.013 7.28 1.013 13.611 0 7.633-0.242 9.707-1.597 14.799-2.845 10.832-7.81 19.469-15.796 27.462-8.052 8.052-16.745 13.082-27.462 15.742-6.75 1.72-17.044 2.361-23.671 1.412z" />
<glyph unicode="&#xe926;" glyph-name="vertical-bottom" data-tags="vertical-bottom" d="M88.064 293.376v-48.128h856.064v96.256h-856.064v-48.128zM88.064 66.048v-48.128h856.064v96.256h-856.064v-48.128z" />
</font>
</defs>
</svg>
